<?xml version="1.0" encoding="utf-8"?>
<!-- Generator: Adobe Illustrator 23.0.0, SVG Export Plug-In . SVG Version: 6.00 Build 0)  -->
<svg version="1.1" id="Layer_1" xmlns="http://www.w3.org/2000/svg" xmlns:xlink="http://www.w3.org/1999/xlink" x="0px" y="0px"
	 viewBox="0 0 24 24" style="enable-background:new 0 0 24 24;" xml:space="preserve">
<path d="M13.9,22.9H4c-0.9,0-1.7-0.7-1.7-1.7V2.7C2.4,1.7,3.1,1,4,1h9.8c0.9,0,1.7,0.7,1.7,1.7v18.5c0.1,0.4-0.1,0.7-0.4,1.1
	C14.8,22.6,14.3,22.9,13.9,22.9z M3.9,2.8v18.5c0,0.1,0.1,0.2,0.2,0.2h9.7c0.1,0,0.2-0.1,0.2-0.2V2.7c0-0.1-0.1-0.2-0.2-0.2L3.9,2.8
	L3.9,2.8z M14.7,5.1H3.2c-0.4,0-0.6-0.3-0.6-0.6s0.3-0.6,0.6-0.6h11.6c0.4,0,0.6,0.2,0.6,0.6c0.1,0.2,0,0.3-0.1,0.5
	C15.2,5.1,14.9,5.1,14.7,5.1z M14.7,18.9H3.2c-0.4,0-0.6-0.3-0.6-0.6c0-0.4,0.3-0.6,0.6-0.6h11.6c0.4,0,0.6,0.2,0.6,0.6
	c0.1,0.2,0,0.4,0,0.5C15.2,18.8,15,18.9,14.7,18.9z M8.9,19.2c-0.6,0-0.9,0.4-0.9,0.9s0.4,0.9,0.9,0.9c0.6,0,0.9-0.4,0.9-0.9
	S9.5,19.2,8.9,19.2z M10.2,3.7H7.7c-0.2,0-0.4-0.1-0.4-0.4s0.2-0.4,0.4-0.4h2.4c0.3,0,0.4,0.1,0.4,0.4c0,0.1,0,0.1,0,0.2
	C10.4,3.6,10.2,3.7,10.2,3.7z M18.7,16.7c1.8,0,3.2,1.4,3.2,3.2c0,1.8-1.4,3.2-3.2,3.2c-1.8,0-3.2-1.4-3.2-3.2
	C15.5,18.1,16.9,16.7,18.7,16.7z"/>
</svg>
