<?xml version="1.0" encoding="utf-8"?>
<!-- Generator: Adobe Illustrator 23.0.0, SVG Export Plug-In . SVG Version: 6.00 Build 0)  -->
<svg version="1.1" id="Capa_1" xmlns="http://www.w3.org/2000/svg" xmlns:xlink="http://www.w3.org/1999/xlink" x="0px" y="0px"
	 viewBox="0 0 24 24" style="enable-background:new 0 0 24 24;" xml:space="preserve">
<path d="M19.8,4.2C17.7,2.1,15,1,12,1S6.3,2.2,4.2,4.2C2.1,6.3,1,9,1,12s1.2,5.7,3.2,7.8C6.3,21.9,9,23,12,23s5.7-1.2,7.8-3.2
	c2.1-2,3.2-4.8,3.2-7.8S21.8,6.3,19.8,4.2z M16.6,12.1c0.1-0.5,0.2-0.8,0.1-1.2c0.6-0.3,1-0.8,1.2-1.4h2.7c0.3,0.8,0.4,1.8,0.4,2.5
	c0,0.6-0.1,1.2-0.2,1.8h-4.2C16.6,13.2,16.6,12.6,16.6,12.1z M15.1,20.4c0.2-0.4,0.3-0.7,0.5-1.1c0.5-0.9,0.7-2.1,0.9-3.6h3.7
	c-0.5,1-1.1,1.8-1.8,2.6C17.4,19.2,16.3,19.9,15.1,20.4z M7.3,12.5c-0.6,0.3-1.1,0.7-1.4,1.4H3.1c-0.2-0.6-0.2-1.2-0.2-1.8
	c0-0.8,0.1-1.6,0.4-2.5h4.2c-0.1,0.8-0.2,1.7-0.2,2.5V12.5z M8.9,3.5C8.8,3.9,8.7,4.2,8.5,4.6C8.1,5.4,7.8,6.5,7.7,7.7H4.1
	c0.4-0.8,0.8-1.5,1.5-2C6.5,4.7,7.7,4.1,8.9,3.5z M8.4,15.6c-0.4,0-0.7-0.3-0.7-0.7s0.3-0.7,0.7-0.7c0.4,0,0.7,0.3,0.7,0.7
	S8.9,15.6,8.4,15.6z M14.9,11.1V12c0,0.6,0,1.2-0.1,1.8h-3.9c-0.4-0.7-0.9-1.3-1.7-1.6V12c0-0.8,0.1-1.7,0.2-2.5h3.7
	C13.5,10.2,14.1,10.8,14.9,11.1z M15.5,7.7c0.5,0,0.7,0.3,0.7,0.7S16,9.2,15.5,9.2c-0.4,0-0.7-0.3-0.7-0.7S15.1,7.7,15.5,7.7z
	 M17.9,7.6C17.5,6.6,16.8,6,16,6c-0.2-0.5-0.3-0.9-0.5-1.3c-0.1-0.4-0.3-0.7-0.5-1.1c1.2,0.4,2.3,1.1,3.3,2.1c0.6,0.5,1,1.1,1.5,1.8
	H17.9z M13,7.7H9.7c0.2-0.9,0.5-1.8,0.6-2.3C10.9,3.7,11.5,3,12,3c0.6,0,1.2,0.9,1.8,2.4C13.8,5.7,13.9,6,14,6.4
	C13.6,6.6,13.2,7.1,13,7.7z M6.2,15.8c0.3,0.8,1,1.4,1.8,1.6c0.1,0.6,0.3,1.4,0.6,2c0.1,0.4,0.3,0.7,0.5,1.1
	c-1.2-0.4-2.3-1.1-3.3-2.1c-0.7-0.7-1.4-1.6-1.8-2.6C3.9,15.8,6.2,15.8,6.2,15.8z M10.8,15.8h3.6c-0.2,1.2-0.5,2.2-0.7,3
	c-0.6,1.7-1.2,2.3-1.7,2.3c-0.6,0-1.2-0.8-1.8-2.3c-0.2-0.5-0.3-1-0.5-1.7C10.2,16.7,10.6,16.3,10.8,15.8z"/>
</svg>
