<?xml version="1.0" encoding="utf-8"?>
<!-- Generator: Adobe Illustrator 23.0.0, SVG Export Plug-In . SVG Version: 6.00 Build 0)  -->
<svg version="1.1" id="Layer_1" xmlns="http://www.w3.org/2000/svg" xmlns:xlink="http://www.w3.org/1999/xlink" x="0px" y="0px"
	 viewBox="0 0 24 24" style="enable-background:new 0 0 24 24;" xml:space="preserve">
<path d="M7.9,13.6c0.1-0.3,0.2-0.5,0.4-0.8c0.4-0.4,0.9-0.7,1.5-0.7c0.2,0.5,0.6,1.4,2,2.6c0,0,0.1,0,0.1,0.1c0,0,0.1,0,0.2,0
	s0.1,0,0.2,0l0,0c0,0,0,0,0.1,0c1.4-1.1,1.8-2,2-2.6c0.6,0.1,1,0.3,1.5,0.7c0.2,0.2,0.3,0.5,0.4,0.8C13.8,15.6,10.3,15.6,7.9,13.6
	L7.9,13.6z M12,13.8c-0.5-0.4-0.9-0.9-1.2-1.3c0.4,0.2,0.8,0.3,1.2,0.3c0.4,0,0.9-0.1,1.2-0.3C12.9,13.1,12.4,13.5,12,13.8z
	 M10.9,11c0.2,0.2,0.5,0.3,0.8,0.3h0.6c0.3,0,0.6-0.1,0.8-0.3c0.1,0.2,0.2,0.4,0.3,0.6c-0.4,0.3-0.9,0.5-1.4,0.5
	c-0.5-0.1-0.9-0.2-1.3-0.5C10.7,11.4,10.8,11.2,10.9,11L10.9,11z M13.6,8.2c0,0.2-0.1,0.4-0.1,0.5v0.1l0,0v0.1
	c0.1,0.3-0.1,0.7-0.3,0.8c-0.2,0.2-0.4,0.4-0.6,0.6c-0.2,0.3-0.2,0.3-0.4,0.3h-0.6c-0.2,0-0.2,0-0.4-0.3c-0.2-0.2-0.4-0.4-0.6-0.6
	c-0.3-0.2-0.4-0.5-0.3-0.8V8.7l0,0V8.6c0-0.2,0-0.4-0.1-0.5c-0.1-0.5-0.1-0.9-0.1-1.4c0.1-0.9,1.5-1,1.5-1h0.3c0,0,1.5,0.1,1.5,1
	C13.8,7.2,13.7,7.7,13.6,8.2L13.6,8.2z M18.1,3.6C15,0.4,10,0.1,6.6,2.9s-4.3,7.7-2,11.4c0.6,0.9,1.1,1.6,1.9,2.4
	c0.3,0.3,0.5,0.6,0.8,0.9L7.6,18c0.8,0.9,1.6,1.9,2.4,2.8l0.6,0.7l0,0l1.1,1.3c0.1,0.1,0.2,0.2,0.4,0.2c0.1,0,0.3-0.1,0.4-0.2
	l1.7-2.1c0.8-0.9,1.6-1.9,2.4-2.8l0.4-0.5c0.3-0.3,0.5-0.6,0.8-0.9c0.7-0.8,1.3-1.5,1.9-2.4C21.5,10.9,21,6.5,18.1,3.6z M17.6,13.6
	c-0.4,0.7-0.9,1.2-1.4,1.8c-0.2,0.2-0.4,0.5-0.6,0.7l-0.3,0.4c-0.6,0.8-1.2,1.4-1.8,2.2l-1.3,1.6c-0.1,0.1-0.2,0.1-0.3,0.1
	c-0.1,0-0.2,0-0.3-0.1l-0.9-1l0,0l-0.5-0.6c-0.6-0.8-1.2-1.4-1.8-2.2L8.3,16c-0.2-0.2-0.4-0.5-0.6-0.7c-0.5-0.6-0.9-1.1-1.4-1.8
	c-1.8-2.8-1.1-6.6,1.5-8.7s6.4-1.9,8.8,0.5C18.9,7.6,19.2,11,17.6,13.6z"/>
</svg>
