<?xml version="1.0" encoding="utf-8"?>
<!-- Generator: Adobe Illustrator 23.0.0, SVG Export Plug-In . SVG Version: 6.00 Build 0)  -->
<svg version="1.1" id="Capa_1" xmlns="http://www.w3.org/2000/svg" xmlns:xlink="http://www.w3.org/1999/xlink" x="0px" y="0px"
	 viewBox="0 0 23.5 23.5" style="enable-background:new 0 0 23.5 23.5;" xml:space="preserve">
<path d="M22,22.8H1.6c-0.5,0-0.8-0.4-0.8-0.8v-0.8h22v0.8C22.8,22.5,22.5,22.8,22,22.8z M9.6,22.8H2.4c-0.5,0-0.8-0.4-0.8-0.8V9.6
	c0-0.5,0.4-0.8,0.8-0.8h7.1c0.5,0,0.8,0.4,0.8,0.8V22C10.4,22.5,10.1,22.8,9.6,22.8z M3.3,21.1h5.5V10.4H3.3V21.1z M21.1,22.8h-7.1
	c-0.5,0-0.8-0.4-0.8-0.8V4.3c0-0.5,0.4-0.8,0.8-0.8h7.1c0.4,0,0.7,0.3,0.8,0.7v0.1v17.7C21.9,22.5,21.6,22.8,21.1,22.8z M14.8,21.1
	h5.5V5h-5.5V21.1z M6.9,8.7H5.3V1.6c0-0.5,0.4-0.8,0.8-0.8H18c0.4,0,0.8,0.3,0.8,0.7v0.1v1.7h-1.6V2.3H6.9C6.9,2.3,6.9,8.7,6.9,8.7z
	 M3.9,10.9h0.9v7.9H3.9V10.9z M5.6,10.9h0.9v7.9H5.6V10.9z M7.4,10.9h0.9v7.9H7.4C7.4,18.8,7.4,10.9,7.4,10.9z M7.8,3.4h0.9v1.3H7.8
	C7.8,4.7,7.8,3.4,7.8,3.4z M9.1,5H7.5V3h1.6V5z M9.1,7.7H7.5v-2h1.6V7.7z M10.9,7.7H9.2v-2h1.6V7.7z M10.9,5H9.2V3h1.6V5z M12.6,5
	H11V3h1.6V5z M12.6,7.7H11v-2h1.6V7.7z M12.6,10.3H11v-2h1.6V10.3z M12.6,13H11v-2h1.6V13z M12.6,15.7H11v-2h1.6V15.7z M12.6,18.3
	H11v-2h1.6V18.3z M18,19.3h-2.2c-0.3,0-0.5,0.2-0.5,0.5v2.2h0.9v-1.8h1.3v1.8h0.9v-2.2C18.4,19.5,18.2,19.3,18,19.3z M7.8,19.7H4.3
	c-0.3,0-0.5,0.2-0.5,0.5V22h0.9v-1.3h2.6V22h0.9v-1.8C8.3,19.9,8.1,19.7,7.8,19.7z M16.8,9.7l-0.6,1.6h-0.7l1.7-5.1H18l1.7,5.1h-0.7
	l-0.5-1.6H16.8z M18.5,9.2L18,7.8c-0.1-0.4-0.2-0.7-0.3-0.9l0,0c-0.1,0.3-0.2,0.6-0.3,0.9L17,9.3L18.5,9.2L18.5,9.2z M16,12.6
	c0.4-0.1,0.8-0.1,1.4-0.1c0.8,0,1.3,0.1,1.7,0.5c0.3,0.2,0.5,0.6,0.5,1c0,0.6-0.4,1.1-1,1.3l0,0c0.6,0.2,1.2,0.7,1.2,1.5
	c0,0.6-0.2,0.9-0.5,1.2c-0.4,0.4-1.1,0.6-2.1,0.6c-0.6,0-0.9,0-1.2-0.1C16,18.6,16,12.6,16,12.6z M16.8,15.1h0.8
	c0.8,0,1.3-0.5,1.3-1c0-0.8-0.6-0.9-1.3-0.9c-0.4,0-0.6,0-0.7,0.1L16.8,15.1L16.8,15.1z M16.8,18c0.2,0,0.4,0,0.7,0
	c0.8,0,1.6-0.3,1.6-1.1c0-0.8-0.8-1.1-1.6-1.1h-0.7V18z"/>
</svg>
