<?xml version="1.0" encoding="utf-8"?>
<!-- Generator: Adobe Illustrator 23.0.0, SVG Export Plug-In . SVG Version: 6.00 Build 0)  -->
<svg version="1.1" id="Capa_1" xmlns="http://www.w3.org/2000/svg" xmlns:xlink="http://www.w3.org/1999/xlink" x="0px" y="0px"
	 viewBox="0 0 24 24" style="enable-background:new 0 0 24 24;" xml:space="preserve">
<path d="M3.5,13.4c-0.5,0-0.9-0.3-0.9-0.9c0-2.8,1.4-5.6,3.6-7.4c0.1-0.1,0.4-0.2,0.6-0.2C7,4.8,7.2,5,7.3,5.1
	c0.3,0.4,0.3,0.9,0,1.2C5.5,7.7,4.4,10,4.4,12.4C4.4,12.9,3.9,13.4,3.5,13.4z M20.9,13.5c-0.5,0-0.9-0.5-0.9-0.9
	c0-2.6-1.3-5-3.3-6.4l0,0c-0.2-0.2-0.3-0.5-0.3-0.7c0-0.2,0.1-0.4,0.2-0.6c0.4-0.4,0.8-0.4,1.2-0.1c2.6,1.8,4.1,4.7,4.1,7.8
	C21.8,13,21.4,13.5,20.9,13.5z M7.4,10.3C7.5,10,7.6,9.6,7.9,9.4C8.3,9,9,8.7,9.6,8.6c0.2,0.6,0.7,1.7,2.3,3c0,0,0.1,0,0.1,0.1
	c0.1,0,0.1,0,0.2,0c0.1,0,0.1,0,0.2,0l0,0c0,0,0,0,0.1,0c1.7-1.3,2.1-2.4,2.3-3c0.6,0.1,1.3,0.4,1.7,0.8c0.2,0.3,0.4,0.6,0.5,0.8
	C14.3,12.7,10.2,12.7,7.4,10.3L7.4,10.3z M12.2,10.6c-0.6-0.5-1-1-1.4-1.6c0.5,0.2,0.9,0.4,1.4,0.4c0.5,0,0.9-0.2,1.4-0.4
	C13.2,9.7,12.7,10.3,12.2,10.6z M11,7.3c0.3,0.3,0.6,0.4,0.9,0.4h0.7c0.4,0,0.6-0.1,0.9-0.4c0.1,0.2,0.2,0.5,0.4,0.6
	c-0.5,0.3-1,0.6-1.7,0.6c-0.6,0-1.2-0.2-1.7-0.6C10.7,7.8,10.9,7.5,11,7.3L11,7.3z M14.1,3.9C14,4.1,14,4.3,14,4.6v0.1l0,0
	c0,0.1,0,0.1,0,0.2c0.1,0.4-0.1,0.7-0.4,0.9c-0.3,0.2-0.5,0.5-0.6,0.6c-0.2,0.3-0.3,0.4-0.5,0.4h-0.7c-0.2,0-0.3,0-0.5-0.4
	c-0.2-0.3-0.4-0.5-0.6-0.6c-0.3-0.2-0.5-0.6-0.4-0.9c0-0.1,0-0.1,0-0.2l0,0V4.6c0-0.2,0-0.4-0.1-0.6c0-0.6-0.1-1.1,0-1.7
	C10.3,1.1,12,1,12,1h0.4c0,0,1.7,0.1,1.8,1.3C14.3,2.8,14.2,3.4,14.1,3.9L14.1,3.9z M1.3,19.8c0.1-0.2,0.2-0.4,0.3-0.6
	c0.3-0.3,0.6-0.5,1.1-0.6c0.1,0.4,0.5,1,1.5,1.8c0,0,0,0,0.1,0h0.1h0.1l0,0l0,0c1-0.8,1.3-1.5,1.5-1.8C6.2,18.8,6.7,19,7,19.2
	c0.1,0.2,0.2,0.4,0.3,0.6C5.5,21.4,2.9,21.4,1.3,19.8L1.3,19.8z M4.2,20.1c-0.4-0.3-0.6-0.6-0.8-1c0.3,0.2,0.6,0.3,0.8,0.3
	s0.6-0.1,0.8-0.3C4.8,19.4,4.6,19.8,4.2,20.1z M3.5,18c0.2,0.2,0.4,0.2,0.6,0.2h0.5c0.2,0,0.4-0.1,0.6-0.2c0.1,0.1,0.2,0.3,0.3,0.4
	c-0.3,0.2-0.6,0.3-1,0.4c-0.4-0.1-0.7-0.2-1-0.4C3.4,18.2,3.4,18.1,3.5,18L3.5,18z M5.4,15.9c0,0.1-0.1,0.3-0.1,0.4v0.1l0,0v0.1
	c0.1,0.2,0,0.5-0.2,0.6c-0.2,0.1-0.3,0.3-0.4,0.5c-0.2,0.2-0.2,0.2-0.3,0.2H4c-0.1,0-0.2,0-0.3-0.2S3.5,17.2,3.4,17
	c-0.2-0.1-0.3-0.4-0.2-0.6v-0.1l0,0v-0.1c0-0.1,0-0.3-0.1-0.4C3,15.6,3,15.2,3,14.9c0-0.7,1.1-0.7,1.1-0.7h0.2c0,0,1.1,0.1,1.1,0.7
	C5.5,15.2,5.5,15.6,5.4,15.9L5.4,15.9z M16.8,19.8c0.1-0.2,0.2-0.4,0.3-0.6c0.3-0.3,0.6-0.5,1.1-0.6c0.1,0.4,0.5,1,1.5,1.8
	c0,0,0,0,0.1,0h0.1h0.1l0,0l0,0c1-0.8,1.3-1.5,1.5-1.8c0.4,0.1,0.8,0.3,1.1,0.6c0.1,0.2,0.2,0.4,0.3,0.6
	C21.1,21.4,18.5,21.4,16.8,19.8L16.8,19.8z M19.8,20.1c-0.4-0.3-0.6-0.6-0.8-1c0.3,0.1,0.6,0.2,0.8,0.3c0.3,0,0.6-0.1,0.8-0.3
	C20.4,19.4,20.1,19.8,19.8,20.1z M19,18c0.2,0.2,0.4,0.2,0.6,0.2H20c0.2,0,0.4-0.1,0.6-0.2c0.1,0.1,0.2,0.3,0.3,0.4
	c-0.3,0.2-0.6,0.3-1,0.4c-0.4-0.1-0.7-0.2-1-0.4C18.9,18.2,19,18.1,19,18L19,18z M20.9,15.9c0,0.1-0.1,0.3-0.1,0.4v0.1l0,0v0.1
	c0.1,0.2,0,0.5-0.2,0.6s-0.3,0.3-0.4,0.5c-0.2,0.2-0.2,0.2-0.3,0.2h-0.5c-0.1,0-0.2,0-0.3-0.2c-0.1-0.2-0.3-0.3-0.4-0.5
	c-0.2-0.1-0.3-0.4-0.2-0.6v-0.1l0,0v-0.1c0-0.1,0-0.3-0.1-0.4c-0.1-0.4-0.1-0.7-0.1-1c0-0.7,1.1-0.7,1.1-0.7h0.2
	c0,0,1.1,0.1,1.1,0.7C21,15.2,21,15.6,20.9,15.9L20.9,15.9z M9.1,21.8c0.1-0.2,0.2-0.4,0.3-0.6c0.3-0.3,0.6-0.5,1.1-0.6
	c0.1,0.4,0.5,1,1.5,1.8c0,0,0,0,0.1,0h0.1h0.1l0,0l0,0c1-0.8,1.3-1.5,1.5-1.8c0.4,0.1,0.8,0.3,1.1,0.6c0.1,0.2,0.2,0.4,0.3,0.6
	C13.3,23.4,10.7,23.4,9.1,21.8L9.1,21.8z M12,22.1c-0.4-0.3-0.6-0.6-0.8-1c0.3,0.1,0.6,0.2,0.8,0.3c0.3,0,0.6-0.1,0.8-0.3
	C12.6,21.5,12.4,21.8,12,22.1z M11.3,20.1c0.2,0.2,0.4,0.2,0.6,0.2h0.5c0.2,0,0.4-0.1,0.6-0.2c0.1,0.1,0.2,0.3,0.3,0.4
	c-0.3,0.2-0.6,0.3-1,0.4c-0.4-0.1-0.7-0.2-1-0.4C11.1,20.3,11.2,20.2,11.3,20.1L11.3,20.1z M13.2,18c0,0.1-0.1,0.3-0.1,0.4v0.1l0,0
	v0.1c0.1,0.2,0,0.5-0.2,0.6s-0.3,0.3-0.4,0.5c-0.2,0.2-0.2,0.2-0.3,0.2h-0.5c-0.1,0-0.2,0-0.3-0.2s-0.3-0.3-0.4-0.5
	C11,19,10.9,18.7,11,18.5v-0.1l0,0v-0.1c0-0.1,0-0.3-0.1-0.4c-0.1-0.4-0.1-0.7-0.1-1c0-0.7,1.1-0.7,1.1-0.7h0.2c0,0,1.1,0.1,1.1,0.7
	C13.3,17.2,13.3,17.6,13.2,18L13.2,18z"/>
</svg>
