<?xml version="1.0" encoding="utf-8"?>
<!-- Generator: Adobe Illustrator 23.0.0, SVG Export Plug-In . SVG Version: 6.00 Build 0)  -->
<svg version="1.1" id="Layer_1" xmlns="http://www.w3.org/2000/svg" xmlns:xlink="http://www.w3.org/1999/xlink" x="0px" y="0px"
	 viewBox="0 0 279.2 198.9" style="enable-background:new 0 0 279.2 198.9;" xml:space="preserve">
<style type="text/css">
	.st0{fill:#FFFFFF;stroke:#E5E7FD;stroke-miterlimit:10;}
	.st1{fill:#526E84;}
	.st2{fill:#FFFFFF;}
	.st3{fill:#E8F5F9;}
</style>
<title>details-app</title>
<path class="st0" d="M6.5,0.5h266.2c3.3,0,6,2.7,6,6v185.9c0,3.3-2.7,6-6,6H6.5c-3.3,0-6-2.7-6-6V6.5C0.5,3.2,3.2,0.5,6.5,0.5z"/>
<path class="st1" d="M272.2,0.5H7C3.5,0.4,0.6,3.3,0.5,6.8v9.6h278.2V6.8C278.7,3.3,275.8,0.4,272.2,0.5z"/>
<circle class="st2" cx="264.2" cy="9.5" r="2.8"/>
<ellipse transform="matrix(0.2328 -0.9725 0.9725 0.2328 185.2241 253.7692)" class="st2" cx="253.5" cy="9.5" rx="2.8" ry="2.8"/>
<path class="st2" d="M237.7,8.5h6c0.5,0,0.9,0.4,0.9,0.9l0,0c0,0.5-0.4,0.9-0.9,0.9h-6c-0.5,0-0.9-0.4-0.9-0.9l0,0
	C236.8,9,237.2,8.5,237.7,8.5z"/>
<circle class="st2" cx="47.4" cy="40.3" r="7.4"/>
<circle class="st2" cx="237" cy="40.3" r="7.4"/>
<circle class="st2" cx="47.8" cy="36.5" r="7.4"/>
<circle class="st2" cx="237.3" cy="36.5" r="7.4"/>
<path class="st3" d="M130.2,148h128.7c0.8,0,1.5,0.7,1.5,1.5v31.7c0,0.8-0.7,1.5-1.5,1.5H130.2c-0.8,0-1.5-0.7-1.5-1.5v-31.7
	C128.7,148.7,129.4,148,130.2,148z"/>
<path class="st3" d="M129.8,112.7h129.4c0.6,0,1.1,0.5,1.1,1.1v27.8c0,0.6-0.5,1.1-1.1,1.1H129.8c-0.6,0-1.1-0.5-1.1-1.1v-27.8
	C128.7,113.2,129.2,112.7,129.8,112.7z"/>
<path class="st3" d="M131,29h127c1.3,0,2.3,1,2.3,2.3v74.6c0,1.3-1,2.3-2.3,2.3H131c-1.3,0-2.3-1-2.3-2.3V31.3
	C128.7,30.1,129.8,29,131,29z"/>
<path class="st3" d="M109.7,40.9H24.9c-3.3-0.1-5.8-2.9-5.7-6.2l0,0c-0.1-3.3,2.4-6,5.7-6.2h84.8c3.3,0.1,5.8,2.9,5.7,6.2l0,0
	C115.5,38,113,40.8,109.7,40.9z"/>
<path class="st3" d="M21.3,148h91.9c1.2,0,2.1,1,2.1,2.1v30.4c0,1.2-1,2.1-2.1,2.1H21.3c-1.2,0-2.1-1-2.1-2.1v-30.4
	C19.2,149,20.1,148,21.3,148z"/>
<circle class="st2" cx="45.3" cy="165.3" r="7.6"/>
<path class="st3" d="M109.7,57.7H24.9c-3.3-0.1-5.8-2.9-5.7-6.2l0,0c-0.1-3.3,2.4-6,5.7-6.2h84.8c3.3,0.1,5.8,2.9,5.7,6.2l0,0
	C115.5,54.8,113,57.6,109.7,57.7z"/>
<path class="st2" d="M183.4,55.1h22.3c0.6,0,1.1,0.5,1.1,1.1v20.2c0,0.6-0.5,1.1-1.1,1.1h-22.3c-0.6,0-1.1-0.5-1.1-1.1V56.2
	C182.3,55.6,182.8,55.1,183.4,55.1z"/>
<path class="st3" d="M109.7,74.6H24.9c-3.3-0.1-5.8-2.9-5.7-6.2l0,0c-0.1-3.3,2.4-6,5.7-6.2h84.8c3.3,0.1,5.8,2.9,5.7,6.2l0,0
	C115.5,71.7,113,74.4,109.7,74.6z"/>
<path class="st3" d="M109.7,91.4H24.9c-3.3-0.1-5.8-2.9-5.7-6.2l0,0c-0.1-3.3,2.4-6,5.7-6.2h84.8c3.3,0.1,5.8,2.9,5.7,6.2l0,0
	C115.5,88.5,113,91.3,109.7,91.4z"/>
<path class="st3" d="M109.7,108.2H24.9c-3.3-0.1-5.8-2.9-5.7-6.2l0,0c-0.1-3.3,2.4-6,5.7-6.2h84.8c3.3,0.1,5.8,2.9,5.7,6.2l0,0
	C115.5,105.3,113,108.1,109.7,108.2z"/>
<path class="st3" d="M109.7,125.1H24.9c-3.3-0.1-5.8-2.9-5.7-6.2l0,0c-0.1-3.3,2.4-6,5.7-6.2h84.8c3.3,0.1,5.8,2.9,5.7,6.2l0,0
	C115.5,122.2,113,124.9,109.7,125.1z"/>
<circle class="st2" cx="67.8" cy="165.3" r="7.6"/>
<circle class="st2" cx="89.3" cy="165.3" r="7.6"/>
<path class="st3" d="M109.7,142.7H24.9c-3.3-0.1-5.8-2.9-5.7-6.2l0,0c-0.1-3.3,2.4-6,5.7-6.2h84.8c3.3,0.1,5.8,2.9,5.7,6.2l0,0
	C115.5,139.8,113,142.6,109.7,142.7z"/>
</svg>
