<?xml version="1.0" encoding="utf-8"?>
<!-- Generator: Adobe Illustrator 23.0.0, SVG Export Plug-In . SVG Version: 6.00 Build 0)  -->
<svg version="1.1" id="Layer_1" xmlns="http://www.w3.org/2000/svg" xmlns:xlink="http://www.w3.org/1999/xlink" x="0px" y="0px"
	 viewBox="0 0 279.2 198.9" style="enable-background:new 0 0 279.2 198.9;" xml:space="preserve">
<style type="text/css">
	.st0{fill:#FFFFFF;stroke:#E5E7FD;stroke-miterlimit:10;}
	.st1{fill:#526E84;}
	.st2{fill:#FFFFFF;}
	.st3{fill:#E8F5F9;}
</style>
<title>feature-app-1</title>
<path class="st0" d="M6.5,0.5h266.2c3.3,0,6,2.7,6,6v185.9c0,3.3-2.7,6-6,6H6.5c-3.3,0-6-2.7-6-6V6.5C0.5,3.2,3.2,0.5,6.5,0.5z"/>
<path class="st1" d="M272.2,0.5H7C3.5,0.4,0.6,3.3,0.5,6.8v9.6h278.2V6.8C278.7,3.3,275.8,0.4,272.2,0.5z"/>
<circle class="st2" cx="264.2" cy="9.5" r="2.8"/>
<ellipse transform="matrix(0.2328 -0.9725 0.9725 0.2328 185.2241 253.7692)" class="st2" cx="253.5" cy="9.5" rx="2.8" ry="2.8"/>
<path class="st2" d="M237.7,8.5h6c0.5,0,0.9,0.4,0.9,0.9l0,0c0,0.5-0.4,0.9-0.9,0.9h-6c-0.5,0-0.9-0.4-0.9-0.9l0,0
	C236.8,9,237.2,8.5,237.7,8.5z"/>
<circle class="st2" cx="47.4" cy="40.3" r="7.4"/>
<circle class="st2" cx="237" cy="40.3" r="7.4"/>
<path class="st3" d="M182.1,28.6h78c0.7,0,1.3,0.6,1.3,1.3v38.5c0,0.7-0.6,1.3-1.3,1.3h-78c-0.7,0-1.3-0.6-1.3-1.3V29.9
	C180.8,29.2,181.4,28.6,182.1,28.6z"/>
<path class="st3" d="M20.7,28.6h145.7c1,0,1.8,0.8,1.8,1.8v37.5c0,1-0.8,1.8-1.8,1.8H20.7c-1,0-1.8-0.8-1.8-1.8V30.4
	C18.9,29.4,19.7,28.6,20.7,28.6z"/>
<path class="st3" d="M254.9,95.8H24.6c-3.1,0-5.7-3.4-5.7-7.5l0,0c0-4.1,2.6-7.5,5.7-7.5h230.3c3.1,0,5.7,3.4,5.7,7.5l0,0
	C260.6,92.4,258,95.8,254.9,95.8z"/>
<path class="st3" d="M163.3,108.3h95.4c0.8,0,1.5,0.7,1.5,1.5v37.9c0,0.8-0.7,1.5-1.5,1.5h-95.4c-0.8,0-1.5-0.7-1.5-1.5v-37.9
	C161.8,108.9,162.5,108.3,163.3,108.3z"/>
<path class="st3" d="M162.9,160.5H259c0.6,0,1.1,0.5,1.1,1.1v20.2c0,0.6-0.5,1.1-1.1,1.1h-96.2c-0.6,0-1.1-0.5-1.1-1.1v-20.2
	C161.8,161,162.3,160.5,162.9,160.5z"/>
<path class="st3" d="M21.2,108.3h127c1.3,0,2.3,1,2.3,2.3c0,0,0,0,0,0v70c0,1.3-1,2.3-2.3,2.3h0h-127c-1.3,0-2.3-1-2.3-2.3v-70
	C18.9,109.3,19.9,108.3,21.2,108.3C21.2,108.3,21.2,108.3,21.2,108.3z"/>
<path class="st2" d="M117.8,143.9l-57.1-21.2c-0.9-0.4-2,0.1-2.3,1.1c-0.1,0.2-0.1,0.4-0.1,0.6v42.4c0,1,0.8,1.8,1.8,1.8
	c0.2,0,0.4,0,0.6-0.1l57.1-21.2c0.9-0.4,1.4-1.4,1.1-2.3C118.7,144.4,118.3,144,117.8,143.9z"/>
</svg>
