<?xml version="1.0" encoding="utf-8"?>
<!-- Generator: Adobe Illustrator 23.0.0, SVG Export Plug-In . SVG Version: 6.00 Build 0)  -->
<svg version="1.1" id="Layer_5" xmlns="http://www.w3.org/2000/svg" xmlns:xlink="http://www.w3.org/1999/xlink" x="0px" y="0px"
	 viewBox="0 0 279.3 198" style="enable-background:new 0 0 279.3 198;" xml:space="preserve">
<style type="text/css">
	.st0{fill:#76E5FF;}
	.st1{fill:#526E84;}
	.st2{fill:#FFFFFF;}
	.st3{fill:#00CCFF;}
	.st4{fill:#FFCD6E;}
	.st5{fill:#D5D4EB;}
	.st6{fill:#3DA0B8;}
	.st7{fill:#FF5E63;}
	.st8{fill:none;stroke:#38356E;stroke-width:0.5;stroke-linejoin:round;}
	.st9{fill:none;stroke:#38356E;stroke-width:0.5;stroke-linejoin:round;stroke-dasharray:3.1242,3.1242;}
	.st10{fill:none;stroke:#38356E;stroke-width:0.5;stroke-linejoin:round;stroke-dasharray:2.8678,2.8678;}
	.st11{fill:none;stroke:#FFFFFF;stroke-width:2;stroke-linecap:round;stroke-linejoin:round;stroke-miterlimit:10;}
	.st12{fill:#222042;}
</style>
<g>
	<g>
		<path class="st0" d="M220.5,61.8l-4.6-1c-0.4-1.2-0.9-2.4-1.5-3.5l2.5-3.9c0.5-0.7,0.4-1.6-0.2-2.2l-7.1-7.1
			c-0.6-0.6-1.5-0.7-2.2-0.2l-3.9,2.5c-1.1-0.6-2.3-1.1-3.5-1.5l-1-4.6c-0.2-0.8-0.9-1.4-1.7-1.4h-10.1c-0.8,0-1.6,0.6-1.7,1.4
			l-1,4.6c-1.2,0.4-2.4,0.9-3.5,1.5l-3.9-2.5c-0.7-0.5-1.6-0.4-2.2,0.2l-7.1,7.1c-0.6,0.6-0.7,1.5-0.2,2.2l2.5,3.9
			c-0.6,1.1-1.1,2.3-1.5,3.5l-4.6,1c-0.8,0.2-1.4,0.9-1.4,1.7v10.1c0,0.8,0.6,1.6,1.4,1.7l4.6,1c0.4,1.2,0.9,2.4,1.5,3.5l-2.5,3.9
			c-0.5,0.7-0.4,1.6,0.2,2.2l7.1,7.1c0.6,0.6,1.5,0.7,2.2,0.2l3.9-2.5c1.1,0.6,2.3,1.1,3.5,1.5l1,4.6c0.2,0.8,0.9,1.4,1.7,1.4h10.1
			c0.8,0,1.6-0.6,1.7-1.4l1-4.6c1.2-0.4,2.4-0.9,3.5-1.5l3.9,2.5c0.7,0.5,1.6,0.4,2.2-0.2l7.1-7.1c0.6-0.6,0.7-1.5,0.2-2.2l-2.5-3.9
			c0.6-1.1,1.1-2.3,1.5-3.5l4.6-1c0.8-0.2,1.4-0.9,1.4-1.7V63.6C221.8,62.7,221.3,62,220.5,61.8z M202.8,68.6
			c0,5.9-4.8,10.6-10.6,10.6s-10.6-4.8-10.6-10.6S186.3,58,192.1,58S202.8,62.7,202.8,68.6z"/>
		<path class="st0" d="M230.6,24.9l-2.5-0.5c-0.2-0.7-0.5-1.3-0.8-1.9l1.4-2.1c0.2-0.4,0.2-0.9-0.1-1.2l-3.9-3.9
			c-0.3-0.3-0.8-0.4-1.2-0.1l-2.1,1.4c-0.6-0.3-1.3-0.6-1.9-0.8l-0.5-2.5c-0.1-0.4-0.5-0.8-0.9-0.8h-5.5c-0.5,0-0.9,0.3-0.9,0.8
			l-0.5,2.5c-0.7,0.2-1.3,0.5-1.9,0.8l-2.1-1.4c-0.4-0.2-0.9-0.2-1.2,0.1l-3.9,3.9c-0.3,0.3-0.4,0.8-0.1,1.2l1.4,2.1
			c-0.3,0.6-0.6,1.3-0.8,1.9l-2.5,0.5c-0.4,0.1-0.8,0.5-0.8,0.9v5.5c0,0.5,0.3,0.9,0.8,0.9l2.5,0.5c0.2,0.7,0.5,1.3,0.8,1.9
			l-1.4,2.1c-0.2,0.4-0.2,0.9,0.1,1.2l3.9,3.9c0.3,0.3,0.8,0.4,1.2,0.1l2.1-1.4c0.6,0.3,1.3,0.6,1.9,0.8l0.5,2.5
			c0.1,0.4,0.5,0.8,0.9,0.8h5.5c0.5,0,0.9-0.3,0.9-0.8l0.5-2.5c0.7-0.2,1.3-0.5,1.9-0.8l2.1,1.4c0.4,0.2,0.9,0.2,1.2-0.1l3.9-3.9
			c0.3-0.3,0.4-0.8,0.1-1.2l-1.4-2.1c0.3-0.6,0.6-1.3,0.8-1.9l2.5-0.5c0.4-0.1,0.8-0.5,0.8-0.9v-5.5C231.3,25.4,231,25,230.6,24.9z
			 M220.9,28.6c0,3.2-2.6,5.8-5.8,5.8s-5.8-2.6-5.8-5.8s2.6-5.8,5.8-5.8S220.9,25.4,220.9,28.6z"/>
	</g>
	<g>
		<path class="st1" d="M231.8,181.9H75.3c-4.4,0-8-3.6-8-8V77.3c0-4.4,3.6-8,8-8h156.5c4.4,0,8,3.6,8,8v96.6
			C239.8,178.3,236.3,181.9,231.8,181.9z"/>
		<path class="st2" d="M71.9,174.1v-97c0-1.8,1.4-3.2,3.2-3.2H232c1.8,0,3.2,1.4,3.2,3.2v97c0,1.8-1.4,3.2-3.2,3.2H75.1
			C73.3,177.3,71.9,175.9,71.9,174.1z"/>
	</g>
	<g>
		<g>
			<path class="st3" d="M143.9,122.1l-123.4-9.3c-1.2-0.1-2.1-1.1-2-2.4l5.8-76.6c0.1-1.2,1.1-2.1,2.4-2L150,41.1
				c1.2,0.1,2.1,1.1,2,2.4l-5.8,76.6C146.2,121.3,145.1,122.2,143.9,122.1z"/>
			<path class="st2" d="M21.2,108.6l5.1-68c0.1-1,0.9-1.7,1.9-1.6l119.2,9c1,0.1,1.7,0.9,1.6,1.9l-5.1,68c-0.1,1-0.9,1.7-1.9,1.6
				l-119.2-9C21.8,110.4,21.1,109.6,21.2,108.6z"/>
			<g>
				<circle class="st2" cx="147.7" cy="44.3" r="1.6"/>
				
					<ellipse transform="matrix(7.501829e-02 -0.9972 0.9972 7.501829e-02 87.9992 182.5673)" class="st2" cx="142.4" cy="43.8" rx="1.6" ry="1.6"/>
				<path class="st2" d="M138.6,43.6c-0.1,0.9-0.8,1.6-1.7,1.5s-1.6-0.8-1.5-1.7s0.8-1.6,1.7-1.5C138,41.9,138.7,42.7,138.6,43.6z"
					/>
			</g>
		</g>
		<path class="st4" d="M42.2,52.7c-0.3,3.6-3.4,6.3-7,6.1c-3.6-0.3-6.3-3.4-6.1-7c0.3-3.6,3.4-6.3,7-6.1
			C39.8,45.9,42.5,49.1,42.2,52.7z"/>
		<g>
			
				<rect x="92.8" y="2.8" transform="matrix(7.501848e-02 -0.9972 0.9972 7.501848e-02 35.8099 141.9116)" class="st5" width="3.1" height="97.8"/>
			
				<rect x="76.9" y="22" transform="matrix(7.501848e-02 -0.9972 0.9972 7.501848e-02 17.3289 129.3813)" class="st5" width="3.1" height="66.6"/>
			
				<rect x="60.6" y="42.2" transform="matrix(7.501848e-02 -0.9972 0.9972 7.501848e-02 -1.8427 116.9179)" class="st5" width="3.1" height="34.6"/>
		</g>
		<path class="st6" d="M40.6,73.5c-0.3,3.6-3.4,6.3-7,6.1c-3.6-0.3-6.3-3.4-6.1-7c0.3-3.6,3.4-6.3,7-6.1
			C38.2,66.7,40.9,69.9,40.6,73.5z"/>
		<g>
			
				<rect x="91.3" y="23.6" transform="matrix(7.501848e-02 -0.9972 0.9972 7.501848e-02 13.5931 159.5567)" class="st5" width="3.1" height="97.8"/>
			
				<rect x="75.3" y="43" transform="matrix(7.501848e-02 -0.9972 0.9972 7.501848e-02 -4.9096 147.2176)" class="st5" width="3.1" height="66.6"/>
			
				<rect x="59" y="62.9" transform="matrix(7.501848e-02 -0.9972 0.9972 7.501848e-02 -24.0595 134.5629)" class="st5" width="3.1" height="34.6"/>
		</g>
		<path class="st7" d="M39.1,94.3c-0.3,3.6-3.4,6.3-7,6.1c-3.6-0.3-6.3-3.4-6.1-7c0.3-3.6,3.4-6.3,7-6.1
			C36.6,87.6,39.3,90.7,39.1,94.3z"/>
		<g>
			
				<rect x="89.7" y="44.3" transform="matrix(7.501848e-02 -0.9972 0.9972 7.501848e-02 -8.6237 177.2017)" class="st5" width="3.1" height="97.8"/>
			
				<rect x="73.8" y="63.8" transform="matrix(7.501848e-02 -0.9972 0.9972 7.501848e-02 -27.1265 164.8627)" class="st5" width="3.1" height="66.6"/>
			
				<rect x="57.3" y="83.8" transform="matrix(7.501848e-02 -0.9972 0.9972 7.501848e-02 -46.3827 152.2927)" class="st5" width="3.1" height="34.6"/>
		</g>
	</g>
	<g>
		<g>
			<path class="st0" d="M224.9,169.9H82.2c-2.5,0-4.6-2-4.6-4.6V85.8c0-2.5,2-4.6,4.6-4.6h142.7c2.5,0,4.6,2,4.6,4.6v79.5
				C229.5,167.9,227.5,169.9,224.9,169.9z"/>
			<path class="st2" d="M79.8,164.7V91.8c0-1.5,1.2-2.8,2.8-2.8h142.1c1.5,0,2.8,1.2,2.8,2.8v72.9c0,1.5-1.2,2.8-2.8,2.8H82.5
				C81,167.5,79.8,166.3,79.8,164.7z"/>
			<g>
				<path class="st2" d="M226.4,85.2c0,1.1-0.9,1.9-1.9,1.9c-1.1,0-1.9-0.9-1.9-1.9s0.9-1.9,1.9-1.9
					C225.6,83.2,226.4,84.1,226.4,85.2z"/>
				<path class="st2" d="M220.1,85.2c0,1.1-0.9,1.9-1.9,1.9c-1.1,0-1.9-0.9-1.9-1.9s0.9-1.9,1.9-1.9
					C219.2,83.2,220.1,84.1,220.1,85.2z"/>
				<path class="st2" d="M213.7,85.2c0,1.1-0.9,1.9-1.9,1.9c-1.1,0-1.9-0.9-1.9-1.9s0.9-1.9,1.9-1.9
					C212.9,83.2,213.7,84.1,213.7,85.2z"/>
			</g>
		</g>
		<g>
			<g>
				<polyline class="st8" points="139.7,132.2 139.7,133.7 138.2,133.7 				"/>
				<line class="st9" x1="135.1" y1="133.7" x2="86.6" y2="133.7"/>
				<polyline class="st8" points="85.1,133.7 83.6,133.7 83.6,132.2 				"/>
				<line class="st10" x1="83.6" y1="129.4" x2="83.6" y2="96.4"/>
				<polyline class="st8" points="83.6,94.9 83.6,93.4 85.1,93.4 				"/>
				<line class="st9" x1="88.2" y1="93.4" x2="136.6" y2="93.4"/>
				<polyline class="st8" points="138.2,93.4 139.7,93.4 139.7,94.9 				"/>
				<line class="st10" x1="139.7" y1="97.8" x2="139.7" y2="130.8"/>
			</g>
		</g>
		<g>
			<rect x="90.1" y="99.9" class="st3" width="56.1" height="40.3"/>
			<g>
				<polygon class="st11" points="142.6,137 93.6,137 109.1,107.9 120.7,127.9 128.5,119.6 				"/>
				<circle class="st11" cx="123" cy="109.5" r="4.8"/>
			</g>
		</g>
		<rect x="152.7" y="94.1" class="st5" width="69.9" height="4.3"/>
		<rect x="152.7" y="102" class="st5" width="20.1" height="2.1"/>
		<rect x="175.5" y="102" class="st5" width="8.2" height="2.1"/>
		<rect x="186.8" y="102" class="st5" width="21.4" height="2.1"/>
		<rect x="209.9" y="102" class="st5" width="12.7" height="2.1"/>
		<rect x="152.7" y="107.3" class="st5" width="26.5" height="2.1"/>
		<rect x="182.1" y="107.3" class="st5" width="10.3" height="2.1"/>
		<rect x="194.8" y="107.3" class="st5" width="10.3" height="2.1"/>
		<rect x="206.7" y="107.3" class="st5" width="13.1" height="2.1"/>
		<rect x="152.7" y="112.7" class="st5" width="7.4" height="2.1"/>
		<rect x="187.3" y="112.7" class="st5" width="13.2" height="2.1"/>
		<rect x="161.8" y="112.7" class="st5" width="23.3" height="2.1"/>
		<rect x="152.7" y="118.1" class="st5" width="16.7" height="2.1"/>
		<rect x="172.3" y="118.1" class="st5" width="5.6" height="2.1"/>
		<rect x="180.5" y="118.1" class="st5" width="11" height="2.1"/>
		<rect x="152.7" y="123.4" class="st5" width="6.4" height="2.1"/>
		<rect x="161.5" y="123.4" class="st5" width="14" height="2.1"/>
		<rect x="83.6" y="144.5" class="st5" width="62.7" height="18.6"/>
		<g>
			<rect x="85.2" y="145.8" class="st2" width="11.9" height="11.1"/>
			<rect x="85.2" y="158.5" class="st2" width="11.9" height="3.3"/>
		</g>
		<g>
			<rect x="100.4" y="150.7" class="st2" width="11.9" height="11.1"/>
			<rect x="100.4" y="145.7" class="st2" width="11.9" height="3.3"/>
		</g>
		<g>
			<rect x="116.7" y="145.8" class="st2" width="11.9" height="11.1"/>
			<rect x="116.7" y="158.5" class="st2" width="11.9" height="3.3"/>
		</g>
		<g>
			<rect x="131.9" y="150.7" class="st2" width="11.9" height="11.1"/>
			<rect x="131.9" y="145.7" class="st2" width="11.9" height="3.3"/>
		</g>
		<g>
			<g>
				<g>
					<g>
						<path class="st0" d="M224.7,133.3h-70.5v-1.8c0-1.1,0.9-2.1,2.1-2.1h66.4c1.1,0,2.1,0.9,2.1,2.1v1.8H224.7z"/>
					</g>
				</g>
				<g>
					<path class="st0" d="M224,132.5v29.2c0,0.7-0.5,1.2-1.2,1.2h-66.7c-0.7,0-1.2-0.5-1.2-1.2v-29.2H224 M224.7,131.8h-70.5v29.9
						c0,1.1,0.9,1.9,1.9,1.9h66.7c1.1,0,1.9-0.9,1.9-1.9L224.7,131.8L224.7,131.8z"/>
				</g>
			</g>
			<g>
				<rect x="156.6" y="135.6" class="st5" width="8.9" height="25.6"/>
			</g>
			<g>
				<rect x="178.7" y="135.6" class="st5" width="42.9" height="25.6"/>
			</g>
			<g>
				<rect x="181" y="137" class="st2" width="38.5" height="2.6"/>
			</g>
			<g>
				<rect x="181" y="141.2" class="st2" width="38.5" height="1.3"/>
			</g>
			<g>
				<rect x="167.3" y="141.2" class="st5" width="8.9" height="3.1"/>
			</g>
			<g>
				<rect x="181" y="143.7" class="st2" width="8.3" height="15.7"/>
			</g>
			<g>
				<rect x="201.3" y="143.7" class="st2" width="8.3" height="15.7"/>
			</g>
			<g>
				<path class="st2" d="M200.1,159.7h-9v-16.4h9V159.7z M191.8,159h7.6v-15h-7.6V159z"/>
			</g>
			<g>
				<path class="st2" d="M219.9,159.7h-9v-16.4h9V159.7z M211.6,159h7.6v-15h-7.6V159z"/>
			</g>
			<g>
				<rect x="167.3" y="146.7" class="st5" width="8.9" height="3.1"/>
			</g>
			<g>
				<rect x="167.3" y="152.3" class="st5" width="8.9" height="3.1"/>
			</g>
			<g>
				<rect x="167.3" y="157.8" class="st5" width="8.9" height="3.1"/>
			</g>
		</g>
	</g>
	<polygon class="st12" points="148,120.7 144.4,119.7 140.7,118.7 141.7,122.3 142.7,125.9 144.7,124 148.8,128.1 150.1,126.8 
		146,122.6 	"/>
</g>
</svg>
