<?xml version="1.0" encoding="utf-8"?>
<!-- Generator: Adobe Illustrator 23.0.0, SVG Export Plug-In . SVG Version: 6.00 Build 0)  -->
<svg version="1.1"
	 id="Layer_1" shape-rendering="geometricPrecision" image-rendering="optimizeQuality" text-rendering="geometricPrecision"
	 xmlns="http://www.w3.org/2000/svg" xmlns:xlink="http://www.w3.org/1999/xlink" x="0px" y="0px" viewBox="0 0 183 50"
	 style="enable-background:new 0 0 183 50;" xml:space="preserve">
<style type="text/css">
	.st0{fill-rule:evenodd;clip-rule:evenodd;fill:#00CCFF;}
	.st1{fill-rule:evenodd;clip-rule:evenodd;fill:#CCCCCC;}
</style>
<g id="Layer_x0020_1">
	<path class="st0" d="M35.5,38.1V17.7l-17-16.8l0,0L6.9,13.2c2.4,1.9,5,1.5,7.6-0.9l4.3-4.2l10,9.8l-3.3,3.5l-6.9-6.7L15.5,18
		L35.5,38.1z"/>
	<path class="st1" d="M1.7,11.9v20.4l17,16.8l11.6-12.4c-2.4-1.9-5-1.5-7.6,0.9l-4.3,4.2L8.4,32l3.3-3.5l6.9,6.7l3.1-3.2L1.7,11.9z"
		/>
	<path class="st0" d="M169.5,22.1c-0.4,0-0.8,0.2-1.1,0.5s-0.5,0.7-0.5,1.1v9.6c0,0.3-0.1,0.5-0.3,0.7s-0.4,0.3-0.7,0.3
		s-0.5-0.1-0.7-0.3s-0.3-0.4-0.3-0.7V20.8c0-0.3,0.1-0.5,0.3-0.7s0.4-0.3,0.7-0.3s0.5,0.1,0.7,0.3c0.2,0.2,0.3,0.4,0.3,0.7v0.4
		c0.2-0.3,0.6-0.6,1-0.8c0.4-0.2,0.8-0.3,1.3-0.3h8.4c0.8,0,1.5,0.3,2,0.8c0.5,0.6,0.8,1.2,0.8,2v10.5c0,0.3-0.1,0.5-0.3,0.7
		s-0.4,0.3-0.7,0.3s-0.5-0.1-0.7-0.3s-0.3-0.4-0.3-0.7v-9.6c0-0.4-0.2-0.8-0.5-1.1c-0.3-0.3-0.7-0.5-1.1-0.5h-8.3L169.5,22.1
		L169.5,22.1z M149.9,20.1h8.4c1,0,1.7,0.4,2.2,1.1v-0.4c0-0.3,0.1-0.5,0.3-0.7s0.4-0.3,0.7-0.3s0.5,0.1,0.7,0.3
		c0.2,0.2,0.3,0.4,0.3,0.7v18.9c0,0.8-0.3,1.4-0.8,2c-0.5,0.5-1.2,0.8-2,0.8h-11.6c-0.3,0-0.5-0.1-0.7-0.3s-0.3-0.4-0.3-0.7
		s0.1-0.5,0.3-0.7s0.4-0.3,0.7-0.3H159c0.4,0,0.8-0.2,1.1-0.5s0.5-0.7,0.5-1.1V33c-0.2,0.3-0.6,0.6-1,0.8s-0.8,0.3-1.3,0.3h-8.4
		c-0.8,0-1.5-0.3-2-0.8c-0.5-0.6-0.8-1.2-0.8-1.9V23c0-0.8,0.3-1.4,0.8-2C148.5,20.4,149.2,20.1,149.9,20.1L149.9,20.1z M150.8,22.1
		c-0.4,0-0.8,0.2-1.1,0.5s-0.5,0.7-0.5,1.1v6.7c0,0.4,0.2,0.8,0.5,1.1c0.3,0.3,0.7,0.5,1.1,0.5h8.2c0.5,0,0.8-0.2,1.1-0.5
		s0.5-0.7,0.5-1.1v-6.7c0-0.5-0.2-0.8-0.5-1.2c-0.3-0.3-0.7-0.5-1.1-0.5h-8.2V22.1z M141.8,14.5c0.2-0.2,0.5-0.4,0.8-0.4
		s0.6,0.1,0.9,0.4c0.2,0.2,0.4,0.5,0.4,0.9c0,0.3-0.1,0.6-0.4,0.8c-0.2,0.2-0.5,0.4-0.9,0.4c-0.3,0-0.6-0.1-0.8-0.4
		c-0.2-0.2-0.4-0.5-0.4-0.8C141.5,15.1,141.6,14.8,141.8,14.5L141.8,14.5z M142,20.1c0.2-0.2,0.4-0.3,0.7-0.3s0.5,0.1,0.7,0.3
		c0.2,0.2,0.3,0.4,0.3,0.7v12.5c0,0.3-0.1,0.5-0.3,0.7s-0.4,0.3-0.7,0.3s-0.5-0.1-0.7-0.3s-0.3-0.4-0.3-0.7V20.8
		C141.7,20.5,141.8,20.3,142,20.1L142,20.1z M124.8,26h9.9c0.4,0,0.8-0.1,1.1-0.4s0.4-0.7,0.4-1.1v-0.9c0-0.4-0.2-0.8-0.4-1.1
		c-0.3-0.3-0.6-0.4-1.1-0.4h-8.3c-0.4,0-0.8,0.2-1.1,0.5c-0.3,0.3-0.5,0.7-0.5,1.1C124.8,23.7,124.8,26,124.8,26z M125.6,20.1h10.1
		c0.7,0,1.3,0.3,1.8,0.8s0.8,1.1,0.8,1.8v2.6c0,0.8-0.3,1.4-0.8,2s-1.2,0.8-2,0.8h-10.7v2.3c0,0.4,0.2,0.8,0.5,1.1
		c0.3,0.3,0.7,0.5,1.1,0.5h10.8c0.3,0,0.5,0.1,0.7,0.3s0.3,0.4,0.3,0.7s-0.1,0.5-0.3,0.7s-0.4,0.3-0.7,0.3h-11.6
		c-0.8,0-1.4-0.3-2-0.8s-0.8-1.2-0.8-2v-8.4c0-0.8,0.3-1.4,0.8-2C124.2,20.4,124.9,20.1,125.6,20.1L125.6,20.1z M111.6,20.1
		c0.2-0.2,0.4-0.3,0.7-0.3c0.3,0,0.5,0.1,0.7,0.3c0.2,0.2,0.3,0.4,0.3,0.7v0.4c0.2-0.3,0.6-0.6,1-0.8c0.4-0.2,0.8-0.3,1.3-0.3h4.6
		c0.3,0,0.5,0.1,0.7,0.3c0.2,0.2,0.3,0.4,0.3,0.7c0,0.3-0.1,0.5-0.3,0.7c-0.2,0.2-0.4,0.3-0.7,0.3H115c-0.4,0-0.8,0.2-1.1,0.5
		c-0.3,0.3-0.5,0.7-0.5,1.1v9.6c0,0.3-0.1,0.5-0.3,0.7c-0.2,0.2-0.4,0.3-0.7,0.3c-0.3,0-0.5-0.1-0.7-0.3s-0.3-0.4-0.3-0.7V20.8
		C111.3,20.5,111.4,20.3,111.6,20.1L111.6,20.1z M94.6,26h9.9c0.4,0,0.8-0.1,1.1-0.4c0.3-0.3,0.4-0.7,0.4-1.1v-0.9
		c0-0.4-0.2-0.8-0.4-1.1c-0.3-0.3-0.6-0.4-1.1-0.4h-8.3c-0.4,0-0.8,0.2-1.2,0.5c-0.3,0.3-0.5,0.7-0.5,1.1L94.6,26L94.6,26z
		 M95.4,20.1h10.1c0.7,0,1.3,0.3,1.8,0.8s0.8,1.1,0.8,1.8v2.6c0,0.8-0.3,1.4-0.8,2s-1.2,0.8-2,0.8H94.6v2.3c0,0.4,0.2,0.8,0.5,1.1
		c0.3,0.3,0.7,0.5,1.2,0.5H107c0.3,0,0.5,0.1,0.7,0.3s0.3,0.4,0.3,0.7s-0.1,0.5-0.3,0.7c-0.2,0.2-0.4,0.3-0.7,0.3H95.4
		c-0.8,0-1.4-0.3-2-0.8s-0.8-1.2-0.8-2v-8.4c0-0.8,0.3-1.4,0.8-2C94,20.4,94.6,20.1,95.4,20.1L95.4,20.1z M83,31.4l5.9-11.1
		c0.2-0.3,0.5-0.5,0.9-0.5c0.2,0,0.4,0,0.5,0.2c0.3,0.2,0.5,0.5,0.5,0.9c0,0.2-0.1,0.4-0.2,0.5l-6.7,12.5c-0.2,0.3-0.5,0.5-0.9,0.5
		s-0.7-0.2-0.9-0.5l-6.7-12.5c-0.1-0.2-0.2-0.4-0.2-0.5c0-0.4,0.2-0.7,0.5-0.9c0.2-0.1,0.3-0.2,0.5-0.2c0.4,0,0.7,0.2,0.9,0.5
		L83,31.4L83,31.4z M60.7,20.1h9.8c0.8,0,1.4,0.3,2,0.8s0.8,1.2,0.8,2v8.4c0,0.8-0.3,1.4-0.8,2c-0.5,0.5-1.2,0.8-2,0.8h-9.8
		c-0.8,0-1.4-0.3-2-0.8s-0.8-1.2-0.8-2v-8.4c0-0.8,0.3-1.4,0.8-2C59.3,20.4,60,20.1,60.7,20.1L60.7,20.1z M61.6,22.1
		c-0.4,0-0.8,0.2-1.1,0.5S60,23.3,60,23.7v6.7c0,0.4,0.2,0.8,0.5,1.1c0.3,0.3,0.7,0.5,1.1,0.5h8.2c0.5,0,0.8-0.2,1.1-0.5
		c0.3-0.3,0.5-0.7,0.5-1.1v-6.7c0-0.4-0.2-0.8-0.5-1.1c-0.3-0.3-0.7-0.5-1.1-0.5H61.6L61.6,22.1z M51.2,28.1h-8.1
		c-0.8,0-1.4-0.3-2-0.8s-0.8-1.2-0.8-2v-2.6c0-0.7,0.3-1.3,0.8-1.8s1.1-0.8,1.8-0.8h10.8c0.3,0,0.5,0.1,0.7,0.3
		c0.2,0.2,0.3,0.4,0.3,0.7c0,0.3-0.1,0.5-0.3,0.7s-0.4,0.3-0.7,0.3h-9.9c-0.4,0-0.8,0.1-1.1,0.4s-0.4,0.6-0.4,1.1v0.9
		c0,0.4,0.1,0.8,0.4,1.1c0.3,0.3,0.6,0.5,1.1,0.5h8.1c0.8,0,1.4,0.3,2,0.8c0.5,0.6,0.8,1.2,0.8,2v2.6c0,0.7-0.3,1.3-0.7,1.8
		c-0.5,0.5-1.1,0.8-1.8,0.8H41.3c-0.3,0-0.5-0.1-0.7-0.3s-0.3-0.4-0.3-0.7s0.1-0.5,0.3-0.7s0.5-0.3,0.7-0.3h9.9
		c0.4,0,0.8-0.1,1.1-0.4c0.3-0.3,0.4-0.6,0.4-1.1v-0.9c0-0.4-0.2-0.8-0.4-1.1C52,28.2,51.6,28.1,51.2,28.1L51.2,28.1z"/>
</g>
</svg>
