<?xml version="1.0" encoding="UTF-8"?>
<!DOCTYPE svg PUBLIC "-//W3C//DTD SVG 1.1//EN" "http://www.w3.org/Graphics/SVG/1.1/DTD/svg11.dtd">
<!-- Creator: CorelDRAW 2017 -->
<svg xmlns="http://www.w3.org/2000/svg" xml:space="preserve" width="400px" height="200px" version="1.1" shape-rendering="geometricPrecision" text-rendering="geometricPrecision" image-rendering="optimizeQuality" fill-rule="evenodd" clip-rule="evenodd"
viewBox="0 0 400 200"
 xmlns:xlink="http://www.w3.org/1999/xlink">
 <g id="Layer_x0020_1">
  <metadata id="CorelCorpID_0Corel-Layer"/>
  <g id="_2365890800320">
   <rect fill="none" width="400" height="200"/>
   <g>
    <path fill="#BDDFFA" d="M288.81 94.07l0 -2.59c-1.41,-0.42 -2.44,-1.73 -2.44,-3.28l0 -9.96c-1.56,3.27 -2.43,6.91 -2.43,10.76 0,3.25 0.62,6.36 1.76,9.22 0.43,-1.77 1.57,-3.26 3.11,-4.15z"/>
    <path fill="#BDDFFA" d="M329.19 97.83l0 6.08c1.37,-1.85 2.5,-3.89 3.32,-6.08l-3.32 0z"/>
    <path fill="#BDDFFA" d="M317.59 112.56c-1.71,-1.44 -2.71,-3.53 -2.71,-5.82l0 -6.17 -2.52 0c-2.29,0 -4.16,-1.86 -4.16,-4.15 0,-2.29 1.87,-4.15 4.16,-4.15l16.77 0 0 -1.84c-1.78,-0.3 -3.35,-1.37 -4.26,-2.94 -1.61,0 -6.01,0 -7.72,0 -0.74,1.66 -2.4,2.77 -4.27,2.77 -2.58,0 -4.68,-2.1 -4.68,-4.67l0 -2.82c0,-0.55 0.45,-0.99 0.99,-0.99l6.38 0 0 -1.84c0,-1.76 1.36,-3.36 3.09,-3.66 0.05,0 0.11,-0.01 0.16,-0.01l3.16 0 0 -1.73 -1.65 0c-0.54,0 -0.99,-0.44 -0.99,-0.98 0,-0.55 0.45,-0.99 0.99,-0.99l4.28 0 -0.03 -3.23c-2.21,-1.74 -4.72,-3.13 -7.44,-4.06 -1.02,3.55 -4.33,6.1 -8.11,6.1 -3.78,0 -7.09,-2.55 -8.11,-6.1 -2.17,0.74 -4.2,1.77 -6.05,3.04l3.56 0c2.22,0 4.02,1.81 4.02,4.02 0,1.43 -0.77,2.75 -1.98,3.46l0 11.81c0,0.55 -0.44,0.99 -0.99,0.99 -0.54,0 -0.99,-0.44 -0.99,-0.99l0 -0.31c-2.42,0.05 -4.18,0.06 -5.26,0.03l0 0.87c0,1.55 -1.03,2.86 -2.44,3.28l0 1.83c0.44,-0.09 0.89,-0.14 1.35,-0.14 3.57,0 6.49,2.83 6.63,6.37l1.58 0c2.65,0 4.82,2.16 4.82,4.81 0,1.99 -1.24,3.76 -3.04,4.48l0 4.27c2.19,0.63 4.51,0.97 6.9,0.97 3.01,0 5.89,-0.53 8.56,-1.51zm-5.25 -34.87c0,-0.55 0.45,-0.99 1,-0.99 0.54,0 0.99,0.44 0.99,0.99l0 1.03c0,0.54 -0.45,0.99 -0.99,0.99 -0.55,0 -1,-0.45 -1,-0.99l0 -1.03z"/>
    <path fill="#48A0DC" d="M327.21 106.26l0 -9.42c0,-0.55 0.44,-0.99 0.99,-0.99l4.97 0c0.62,-2.18 0.95,-4.48 0.95,-6.85 0,-7 -2.89,-13.34 -7.54,-17.89l0.03 2.43c0,0.27 -0.1,0.52 -0.29,0.71 -0.19,0.19 -0.44,0.29 -0.7,0.29l-1.66 0 0 2.72c0,0.55 -0.44,0.99 -0.99,0.99l-4.05 0c-0.74,0.16 -1.37,0.94 -1.37,1.69l0 2.83c0,0.54 -0.44,0.99 -0.99,0.99l-6.38 0 0 1.83c0,1.48 1.21,2.69 2.7,2.69 1.23,0 2.3,-0.83 2.61,-2.02l0 0c0.08,-0.29 0.32,-0.75 1.06,-0.75l8.92 0c0.39,0 0.75,0.23 0.91,0.59 0.66,1.48 2.13,2.43 3.74,2.43 0.55,0 0.99,0.44 0.99,0.99l0 3.74c0,0.54 -0.44,0.98 -0.99,0.98l-17.76 0c-1.2,0 -2.18,0.98 -2.18,2.18 0,1.2 0.98,2.17 2.18,2.17l3.51 0c0.55,0 0.99,0.44 0.99,0.99l0 7.16c0,2.05 1.1,3.89 2.89,4.92 2.81,-1.33 5.34,-3.17 7.46,-5.4z"/>
    <path fill="#BDDFFA" d="M302.81 64.72c0.78,2.72 3.32,4.68 6.22,4.68 2.9,0 5.44,-1.96 6.21,-4.68 -1.98,-0.51 -4.07,-0.78 -6.21,-0.78 -2.15,0 -4.23,0.27 -6.22,0.78z"/>
    <path fill="#48A0DC" d="M300.15 112.44l0 -4.34c0,-0.47 0.32,-0.88 0.78,-0.97 1.31,-0.27 2.26,-1.44 2.26,-2.78 0,-1.56 -1.28,-2.83 -2.84,-2.83l-2.56 0c-0.55,0 -0.99,-0.45 -0.99,-0.99l0 -0.73c0,-2.56 -2.09,-4.65 -4.66,-4.65 -2.57,0 -4.66,2.09 -4.66,4.65l0 2.03c2.89,4.82 7.35,8.59 12.67,10.61z"/>
    <path fill="#48A0DC" d="M289.8 89.65c0.8,0 1.45,-0.65 1.45,-1.45l0 -1.91c0,-0.3 0.14,-0.59 0.38,-0.78 0.23,-0.18 0.53,-0.24 0.81,-0.18 0.45,0.05 3.27,0.04 6.05,-0.01l0 -10.14c0,-0.41 0.26,-0.78 0.65,-0.93 0.8,-0.29 1.33,-1.06 1.33,-1.91 0,-1.12 -0.91,-2.04 -2.04,-2.04l-6.09 0c-1.5,1.34 -2.84,2.86 -3.99,4.52l0 13.38c0,0.8 0.65,1.45 1.45,1.45z"/>
    <path fill="white" d="M338.02 87.09c-0.99,-15.2 -13.73,-27.11 -28.99,-27.11 -16.02,0 -29.05,13.02 -29.05,29.02 0,5.87 1.74,11.53 5.05,16.36 0.17,0.25 0.22,0.57 0.12,0.87l-3.32 9.95 9.96 -3.32c0.29,-0.1 0.61,-0.05 0.87,0.12 4.83,3.3 10.49,5.04 16.37,5.04 15.26,0 28,-11.9 28.99,-27.1 0.03,-0.54 0.5,-0.95 1.03,-0.93 0.01,-0.33 0.02,-0.66 0.02,-0.99 0,-0.33 -0.01,-0.66 -0.02,-0.99 -0.53,0.03 -1,-0.38 -1.03,-0.92zm-9 20.13c-0.06,0.09 -0.13,0.17 -0.22,0.23 -2.4,2.57 -5.3,4.68 -8.55,6.16 -0.07,0.05 -0.15,0.08 -0.24,0.11 -3.35,1.49 -7.07,2.33 -10.98,2.33 -2.83,0 -5.55,-0.44 -8.12,-1.25 -0.06,-0.01 -0.11,-0.03 -0.17,-0.05 -6.34,-2.04 -11.67,-6.37 -15.02,-12 -0.06,-0.08 -0.11,-0.16 -0.14,-0.25 -2.3,-3.98 -3.62,-8.59 -3.62,-13.5 0,-5.51 1.66,-10.64 4.5,-14.92 0.05,-0.09 0.1,-0.17 0.17,-0.25 1.3,-1.9 2.83,-3.63 4.55,-5.14 0.07,-0.09 0.16,-0.16 0.25,-0.22 2.84,-2.43 6.18,-4.28 9.85,-5.38 0.06,-0.02 0.12,-0.04 0.18,-0.05 2.4,-0.7 4.94,-1.08 7.57,-1.08 2.63,0 5.17,0.38 7.57,1.08 0.06,0.01 0.12,0.03 0.18,0.05 3.43,1.03 6.57,2.71 9.28,4.91 0.09,0.05 0.17,0.12 0.24,0.2 5.98,4.96 9.8,12.44 9.8,20.8 0,2.8 -0.43,5.51 -1.22,8.05 -0.02,0.06 -0.04,0.12 -0.06,0.18 -1.2,3.75 -3.2,7.14 -5.8,9.99z"/>
    <path fill="#082947" d="M336.1 89c0,-8.36 -3.82,-15.84 -9.8,-20.8 -0.07,-0.08 -0.15,-0.15 -0.24,-0.2 -2.71,-2.2 -5.85,-3.88 -9.28,-4.91 -0.06,-0.02 -0.12,-0.04 -0.18,-0.05 -2.4,-0.7 -4.94,-1.08 -7.57,-1.08 -2.63,0 -5.17,0.38 -7.57,1.08 -0.06,0.01 -0.12,0.03 -0.18,0.05 -3.67,1.1 -7.01,2.95 -9.85,5.38 -0.09,0.06 -0.18,0.13 -0.25,0.22 -1.72,1.51 -3.25,3.24 -4.55,5.14 -0.07,0.08 -0.12,0.16 -0.17,0.25 -2.84,4.28 -4.5,9.41 -4.5,14.92 0,4.91 1.32,9.52 3.62,13.5 0.03,0.09 0.08,0.17 0.14,0.25 3.35,5.63 8.68,9.96 15.02,12 0.06,0.02 0.11,0.04 0.17,0.05 2.57,0.81 5.29,1.25 8.12,1.25 3.91,0 7.62,-0.84 10.98,-2.33 0.09,-0.03 0.17,-0.06 0.24,-0.11 3.25,-1.48 6.15,-3.59 8.55,-6.16 0.09,-0.06 0.16,-0.14 0.22,-0.23 2.6,-2.85 4.6,-6.24 5.8,-9.99 0.02,-0.06 0.04,-0.12 0.06,-0.18 0.79,-2.54 1.22,-5.25 1.22,-8.05zm-27.07 -19.6c-2.9,0 -5.44,-1.96 -6.22,-4.68 1.99,-0.51 4.07,-0.78 6.22,-0.78 2.14,0 4.23,0.27 6.21,0.78 -0.77,2.72 -3.31,4.68 -6.21,4.68zm-21.55 30.4c0,-2.56 2.09,-4.65 4.66,-4.65 2.57,0 4.66,2.09 4.66,4.65l0 0.73c0,0.54 0.44,0.99 0.99,0.99l2.56 0c1.56,0 2.84,1.27 2.84,2.83 0,1.34 -0.95,2.51 -2.26,2.78 -0.46,0.09 -0.78,0.5 -0.78,0.97l0 4.34c-5.32,-2.02 -9.78,-5.79 -12.67,-10.61l0 -2.03 0 0zm4.86 -29.5l6.09 0c1.13,0 2.04,0.92 2.04,2.04 0,0.85 -0.53,1.62 -1.33,1.91 -0.39,0.15 -0.65,0.52 -0.65,0.93l0 10.14c-2.78,0.05 -5.6,0.06 -6.05,0.01 -0.28,-0.06 -0.58,0 -0.81,0.18 -0.24,0.19 -0.38,0.48 -0.38,0.78l0 1.91c0,0.8 -0.65,1.45 -1.45,1.45 -0.8,0 -1.45,-0.65 -1.45,-1.45l0 -13.38c1.15,-1.66 2.49,-3.18 3.99,-4.52zm-5.97 7.94l0 9.96c0,1.55 1.03,2.86 2.44,3.28l0 2.59c-1.53,0.89 -2.68,2.38 -3.11,4.15 -1.14,-2.86 -1.76,-5.97 -1.76,-9.22 0,-3.85 0.87,-7.49 2.43,-10.76zm15.76 30.59c1.8,-0.72 3.04,-2.49 3.04,-4.48 0,-2.65 -2.17,-4.81 -4.82,-4.81l-1.58 0c-0.14,-3.54 -3.06,-6.37 -6.63,-6.37 -0.46,0 -0.91,0.05 -1.35,0.14l0 -1.83c1.41,-0.42 2.44,-1.73 2.44,-3.28l0 -0.87c1.08,0.03 2.84,0.02 5.26,-0.03l0 0.31c0,0.55 0.45,0.99 0.99,0.99 0.55,0 0.99,-0.44 0.99,-0.99l0 -11.81c1.21,-0.71 1.98,-2.03 1.98,-3.46 0,-2.21 -1.8,-4.02 -4.02,-4.02l-3.56 0c1.85,-1.27 3.88,-2.3 6.05,-3.04 1.02,3.55 4.33,6.1 8.11,6.1 3.78,0 7.09,-2.55 8.11,-6.1 2.72,0.93 5.23,2.32 7.44,4.06l0.03 3.23 -4.28 0c-0.54,0 -0.99,0.44 -0.99,0.99 0,0.54 0.45,0.98 0.99,0.98l1.65 0 0 1.73 -3.16 0c-0.05,0 -0.11,0.01 -0.16,0.01 -1.73,0.3 -3.09,1.9 -3.09,3.66l0 1.84 -6.38 0c-0.54,0 -0.99,0.44 -0.99,0.99l0 2.82c0,2.57 2.1,4.67 4.68,4.67 1.87,0 3.53,-1.11 4.27,-2.77 1.71,0 6.11,0 7.72,0 0.91,1.57 2.48,2.64 4.26,2.94l0 1.84 -16.77 0c-2.29,0 -4.16,1.86 -4.16,4.15 0,2.29 1.87,4.15 4.16,4.15l2.52 0 0 6.17c0,2.29 1,4.38 2.71,5.82 -2.67,0.98 -5.55,1.51 -8.56,1.51 -2.39,0 -4.71,-0.34 -6.9,-0.97l0 -4.27zm17.62 2.83c-1.79,-1.03 -2.89,-2.87 -2.89,-4.92l0 -7.16c0,-0.55 -0.44,-0.99 -0.99,-0.99l-3.51 0c-1.2,0 -2.18,-0.97 -2.18,-2.17 0,-1.2 0.98,-2.18 2.18,-2.18l17.76 0c0.55,0 0.99,-0.44 0.99,-0.98l0 -3.74c0,-0.55 -0.44,-0.99 -0.99,-0.99 -1.61,0 -3.08,-0.95 -3.74,-2.43 -0.16,-0.36 -0.52,-0.59 -0.91,-0.59l-8.92 0c-0.74,0 -0.98,0.46 -1.06,0.75l0 0c-0.31,1.19 -1.38,2.02 -2.61,2.02 -1.49,0 -2.7,-1.21 -2.7,-2.69l0 -1.83 6.38 0c0.55,0 0.99,-0.45 0.99,-0.99l0 -2.83c0,-0.75 0.63,-1.53 1.37,-1.69l4.05 0c0.55,0 0.99,-0.44 0.99,-0.99l0 -2.72 1.66 0c0.26,0 0.51,-0.1 0.7,-0.29 0.19,-0.19 0.29,-0.44 0.29,-0.71l-0.03 -2.43c4.65,4.55 7.54,10.89 7.54,17.89 0,2.37 -0.33,4.67 -0.95,6.85l-4.97 0c-0.55,0 -0.99,0.44 -0.99,0.99l0 9.42c-2.12,2.23 -4.65,4.07 -7.46,5.4zm9.44 -13.83l3.32 0c-0.82,2.19 -1.95,4.23 -3.32,6.08l0 -6.08z"/>
    <path fill="#082947" d="M313.34 79.71c0.54,0 0.99,-0.45 0.99,-0.99l0 -1.03c0,-0.55 -0.45,-0.99 -0.99,-0.99 -0.55,0 -1,0.44 -1,0.99l0 1.03c0,0.54 0.45,0.99 1,0.99z"/>
    <path fill="#082947" d="M339.07 89.99c-0.01,0 -0.01,0 -0.02,0 -0.53,-0.02 -1,0.39 -1.03,0.93 -0.99,15.2 -13.73,27.1 -28.99,27.1 -5.88,0 -11.54,-1.74 -16.37,-5.04 -0.26,-0.17 -0.58,-0.22 -0.87,-0.12l-9.96 3.32 3.32 -9.95c0.1,-0.3 0.05,-0.62 -0.12,-0.87 -3.31,-4.83 -5.05,-10.49 -5.05,-16.36 0,-16 13.03,-29.02 29.05,-29.02 15.26,0 28,11.91 28.99,27.11 0.03,0.54 0.5,0.95 1.03,0.92 0.01,0 0.01,0 0.02,0 0.55,-0.03 0.96,-0.5 0.92,-1.05 -0.51,-7.84 -3.95,-15.14 -9.7,-20.54 -5.78,-5.43 -13.33,-8.42 -21.26,-8.42 -8.29,0 -16.08,3.23 -21.94,9.08 -5.86,5.86 -9.09,13.64 -9.09,21.92 0,6.11 1.77,11.99 5.12,17.06l-3.8 11.37c-0.12,0.35 -0.02,0.74 0.24,1.01 0.27,0.26 0.66,0.36 1.02,0.24l11.37 -3.79c5.08,3.35 10.97,5.11 17.08,5.11 7.93,0 15.48,-2.99 21.26,-8.41 5.75,-5.4 9.19,-12.7 9.7,-20.54 0.04,-0.55 -0.37,-1.02 -0.92,-1.06z"/>
   </g>
   <g>
    <path fill="white" d="M61.94 60.67c-3.9,4.55 -6.05,10.34 -6.05,16.32 0,13.82 11.24,25.06 25.06,25.06 13.82,0 25.06,-11.24 25.06,-25.06 0,-13.82 -11.24,-25.06 -25.06,-25.06 -5.98,0 -11.77,2.15 -16.32,6.05 -0.4,0.35 -1,0.31 -1.36,-0.07 -0.48,0.45 -0.95,0.92 -1.4,1.4 0.38,0.36 0.42,0.96 0.07,1.36zm18.06 -2.78l0 -3c0,-0.54 0.44,-0.98 0.99,-0.98 0.55,0 0.99,0.44 0.99,0.98l0 3c2.86,0.15 5.66,0.94 8.17,2.31 0.48,0.26 0.65,0.87 0.39,1.34 0,0.01 -0.01,0.02 -0.01,0.03 0.67,0.41 1.31,0.87 1.91,1.37l2.77 -1.51c0.38,-0.21 0.86,-0.14 1.17,0.17 0.31,0.31 0.38,0.79 0.17,1.17l-1.51 2.76c0.5,0.61 0.95,1.25 1.37,1.92 0.01,0 0.02,-0.01 0.02,-0.01 0.48,-0.27 1.08,-0.09 1.35,0.39 1.37,2.51 2.16,5.31 2.31,8.17l3 0c0.54,0 0.98,0.44 0.98,0.99 0,0.55 -0.44,0.99 -0.98,0.99l-3 0c-0.5,9.76 -8.35,17.61 -18.11,18.11l0 3c0,0.54 -0.44,0.98 -0.99,0.98 -0.55,0 -0.99,-0.44 -0.99,-0.98l0 -3c-2.86,-0.15 -5.66,-0.94 -8.17,-2.31 -0.48,-0.26 -0.66,-0.87 -0.39,-1.34 0,-0.01 0.01,-0.02 0.01,-0.03 -0.67,-0.41 -1.31,-0.87 -1.92,-1.37l-2.76 1.51c-0.15,0.08 -0.31,0.12 -0.47,0.12 -0.26,0 -0.51,-0.1 -0.7,-0.29 -0.31,-0.31 -0.38,-0.79 -0.17,-1.17l1.51 -2.76c-0.5,-0.61 -0.96,-1.25 -1.37,-1.92 -0.01,0 -0.02,0.01 -0.03,0.01 -0.15,0.08 -0.31,0.12 -0.47,0.12 -0.35,0 -0.69,-0.18 -0.87,-0.51 -1.37,-2.51 -2.16,-5.31 -2.31,-8.17l-3 0c-0.54,0 -0.99,-0.44 -0.99,-0.99 0,-0.55 0.45,-0.99 0.99,-0.99l3 0c0.5,-9.76 8.35,-17.61 18.11,-18.11z"/>
    <path fill="#BDDFFA" d="M89.2 61.94c-2.51,-1.37 -5.34,-2.1 -8.21,-2.1 -9.46,0 -17.15,7.69 -17.15,17.15 0,2.87 0.73,5.7 2.1,8.21 0.25,0.47 0.09,1.06 -0.37,1.33 0.41,0.67 0.87,1.31 1.37,1.92l8.86 -16.23c0,0 0,-0.01 0,-0.01l0.01 -0.01c0,0 0,0 0,-0.01 0.02,-0.03 0.04,-0.06 0.06,-0.09 0.01,-0.01 0.02,-0.02 0.02,-0.03 0.03,-0.03 0.05,-0.06 0.09,-0.09 0.03,-0.03 0.06,-0.06 0.09,-0.09 0.01,0 0.02,-0.01 0.03,-0.02 0.03,-0.02 0.06,-0.04 0.09,-0.06 0,0 0.01,0 0.01,0l0.01 -0.01c0.01,0 16.23,-8.86 16.23,-8.86 -0.6,-0.5 -1.24,-0.96 -1.91,-1.37 -0.27,0.46 -0.86,0.63 -1.33,0.37z"/>
    <path fill="#BDDFFA" d="M86.18 81.77l-0.01 0.01c0,0 0,0 -0.01,0.01 -0.01,0.03 -0.03,0.06 -0.06,0.09 0,0.01 -0.01,0.02 -0.01,0.03 -0.03,0.03 -0.06,0.06 -0.09,0.09 -0.03,0.03 -0.06,0.06 -0.09,0.09 -0.01,0 -0.02,0.01 -0.03,0.02 -0.03,0.02 -0.06,0.04 -0.09,0.06 -0.01,0 -0.01,0 -0.01,0l-0.01 0.01c-0.01,0 -16.24,8.86 -16.24,8.86 0.61,0.5 1.25,0.96 1.92,1.37 0.27,-0.46 0.86,-0.63 1.33,-0.37 2.5,1.37 5.34,2.1 8.21,2.1 9.45,0 17.15,-7.69 17.15,-17.15 0,-2.87 -0.73,-5.7 -2.1,-8.21 -0.26,-0.47 -0.09,-1.06 0.37,-1.33 -0.42,-0.67 -0.87,-1.31 -1.37,-1.92 0,0 -8.86,16.23 -8.86,16.24z"/>
    <polygon fill="white" points="83.67,81.07 76.91,74.31 68.78,89.2 "/>
    <polygon fill="#FF7878" points="85.07,79.67 93.2,64.78 78.31,72.91 "/>
    <path fill="#BDDFFA" d="M80.99 47.97c-16,0 -29.02,13.02 -29.02,29.02 0,16 13.02,29.02 29.02,29.02 16,0 29.02,-13.02 29.02,-29.02 0,-16 -13.02,-29.02 -29.02,-29.02zm-0.04 56.06c-14.91,0 -27.04,-12.13 -27.04,-27.04 0,-6.45 2.32,-12.71 6.53,-17.61 0.36,-0.41 0.98,-0.46 1.4,-0.1 0.01,0.01 0.02,0.02 0.03,0.03 0.45,-0.48 0.92,-0.95 1.4,-1.4 -0.01,-0.01 -0.02,-0.02 -0.03,-0.03 -0.36,-0.42 -0.31,-1.04 0.1,-1.4 4.9,-4.21 11.16,-6.53 17.61,-6.53 14.91,0 27.04,12.13 27.04,27.04 0,14.91 -12.13,27.04 -27.04,27.04z"/>
    <path fill="#082947" d="M102.91 55.07c-5.86,-5.85 -13.64,-9.08 -21.92,-9.08 -8.28,0 -16.07,3.23 -21.92,9.08 -5.86,5.85 -9.08,13.64 -9.08,21.92 0,8.28 3.22,16.07 9.08,21.92 5.85,5.85 13.64,9.08 21.92,9.08 8.28,0 16.06,-3.23 21.92,-9.08 5.85,-5.85 9.08,-13.64 9.08,-21.92 0,-8.28 -3.23,-16.07 -9.08,-21.92zm-21.92 50.94c-16,0 -29.02,-13.02 -29.02,-29.02 0,-16 13.02,-29.02 29.02,-29.02 16,0 29.02,13.02 29.02,29.02 0,16 -13.02,29.02 -29.02,29.02z"/>
    <path fill="#082947" d="M80.95 49.95c-6.45,0 -12.71,2.32 -17.61,6.53 -0.41,0.36 -0.46,0.98 -0.1,1.4 0.01,0.01 0.02,0.02 0.03,0.03 0.36,0.38 0.96,0.42 1.36,0.07 4.55,-3.9 10.34,-6.05 16.32,-6.05 13.82,0 25.06,11.24 25.06,25.06 0,13.82 -11.24,25.06 -25.06,25.06 -13.82,0 -25.06,-11.24 -25.06,-25.06 0,-5.98 2.15,-11.77 6.05,-16.32 0.35,-0.4 0.31,-1 -0.07,-1.36 -0.01,-0.01 -0.02,-0.02 -0.03,-0.03 -0.42,-0.36 -1.04,-0.31 -1.4,0.1 -4.21,4.9 -6.53,11.16 -6.53,17.61 0,14.91 12.13,27.04 27.04,27.04 14.91,0 27.04,-12.13 27.04,-27.04 0,-14.91 -12.13,-27.04 -27.04,-27.04z"/>
    <path fill="#082947" d="M96.04 68.78c1.37,2.51 2.1,5.34 2.1,8.21 0,9.46 -7.7,17.15 -17.15,17.15 -2.87,0 -5.71,-0.73 -8.21,-2.1 -0.47,-0.26 -1.06,-0.09 -1.33,0.37 0,0.01 -0.01,0.02 -0.01,0.03 -0.27,0.47 -0.09,1.07 0.39,1.34 2.51,1.37 5.31,2.16 8.17,2.31l0 3c0,0.54 0.44,0.98 0.99,0.98 0.55,0 0.99,-0.44 0.99,-0.98l0 -3c9.76,-0.5 17.61,-8.35 18.11,-18.11l3 0c0.54,0 0.98,-0.44 0.98,-0.99 0,-0.55 -0.44,-0.99 -0.98,-0.99l-3 0c-0.15,-2.86 -0.94,-5.66 -2.31,-8.17 -0.27,-0.48 -0.87,-0.66 -1.35,-0.39 0,0 -0.01,0.01 -0.02,0.01 -0.46,0.27 -0.63,0.86 -0.37,1.33z"/>
    <path fill="#082947" d="M76.21 71.8l-0.01 0.01c0,0 -0.01,0 -0.01,0 -0.03,0.02 -0.06,0.04 -0.09,0.06 -0.01,0.01 -0.02,0.02 -0.03,0.02 -0.03,0.03 -0.06,0.06 -0.09,0.09 -0.04,0.03 -0.06,0.06 -0.09,0.09 0,0.01 -0.01,0.02 -0.02,0.03 -0.02,0.03 -0.04,0.06 -0.06,0.09 0,0.01 0,0.01 0,0.01l-0.01 0.01c0,0 0,0.01 0,0.01l-8.86 16.23 -1.51 2.76c-0.21,0.38 -0.14,0.86 0.17,1.17 0.19,0.19 0.44,0.29 0.7,0.29 0.16,0 0.32,-0.04 0.47,-0.12l2.76 -1.51 16.23 -8.86c0.01,0 0.02,-0.01 0.02,-0.01 0,0 0,0 0.01,0 0.03,-0.02 0.06,-0.04 0.09,-0.06 0.01,-0.01 0.02,-0.02 0.03,-0.02 0.03,-0.03 0.06,-0.06 0.09,-0.09 0.03,-0.03 0.06,-0.06 0.09,-0.09 0,-0.01 0.01,-0.02 0.01,-0.03 0.03,-0.03 0.05,-0.06 0.07,-0.09 0,-0.01 0,-0.01 0,-0.01l0.01 -0.01c0,-0.01 8.86,-16.24 8.86,-16.24l1.51 -2.76c0.21,-0.38 0.14,-0.86 -0.17,-1.17 -0.31,-0.31 -0.79,-0.38 -1.17,-0.17l-2.77 1.51c0,0 -16.22,8.86 -16.23,8.86zm7.46 9.27l-14.89 8.13 8.13 -14.89 6.76 6.76zm1.4 -1.4l-6.76 -6.76 14.89 -8.13 -8.13 14.89z"/>
    <path fill="#082947" d="M58.89 76c-0.54,0 -0.99,0.44 -0.99,0.99 0,0.55 0.45,0.99 0.99,0.99l3 0c0.15,2.86 0.94,5.66 2.31,8.17 0.18,0.33 0.52,0.51 0.87,0.51 0.16,0 0.32,-0.04 0.47,-0.12 0.01,0 0.02,-0.01 0.03,-0.01 0.46,-0.27 0.62,-0.86 0.37,-1.33 -1.38,-2.51 -2.1,-5.34 -2.1,-8.21 0,-9.46 7.69,-17.15 17.15,-17.15 2.87,0 5.7,0.73 8.21,2.1 0.47,0.26 1.06,0.09 1.33,-0.37 0,-0.01 0.01,-0.02 0.01,-0.03 0.26,-0.47 0.09,-1.07 -0.39,-1.34 -2.51,-1.37 -5.31,-2.16 -8.17,-2.31l0 -3c0,-0.54 -0.44,-0.98 -0.99,-0.98 -0.55,0 -0.99,0.44 -0.99,0.98l0 3c-9.76,0.5 -17.61,8.35 -18.11,18.11l-3 0z"/>
   </g>
   <g>
    <rect fill="white" x="88.01" y="152" width="24" height="46"/>
    <path fill="#082947" d="M88.01 150l24 0c1.1,0 2,0.9 2,2l0 46c0,1.1 -0.9,2 -2,2l-24 0c-1.1,0 -2,-0.9 -2,-2l0 -46c0,-1.1 0.9,-2 2,-2zm0 40l24 0 0 -32 -24 0 0 32zm24 2l-24 0 0 6 24 0 0 -6zm-24 -36l24 0 0 -4 -24 0 0 4z"/>
    <rect fill="#BDDFFA" x="88.01" y="192" width="24" height="6"/>
    <rect fill="black" x="97.01" y="194" width="6" height="2" rx="1.2" ry="2"/>
    <polygon fill="#082947" points="100.39,180.05 90.01,186.77 100.14,161 110.01,187 "/>
    <polygon fill="#FF7878" points="105.77,181.47 100.1,166.55 94.15,181.71 100.46,177.63 "/>
   </g>
   <path fill="#082947" d="M345.99 156l14 0c2.2,0 4,1.8 4,4l0 36c0,2.2 -1.8,4 -4,4l-14 0c-2.2,0 -4,-1.8 -4,-4l0 -36c0,-2.2 1.8,-4 4,-4zm0 2l14 0c1.1,0 2,0.9 2,2l0 36c0,1.1 -0.9,2 -2,2l-14 0c-1.1,0 -2,-0.9 -2,-2l0 -36c0,-1.1 0.9,-2 2,-2z"/>
   <rect fill="white" x="343.99" y="158" width="18" height="40" rx="2" ry="2"/>
   <path fill="#082947" d="M353.09 161l0.08 0 0.05 0 0.02 0 0.08 0 0.03 0.01 0.04 0 0.08 0 0 0 0.07 0.01 0.06 0 0.02 0.01 0.07 0.01 0.04 0 0.04 0.01 0.07 0.01 0.01 0 0.06 0.01 0.06 0.01 0.02 0 0.07 0.01 0.04 0.01 0.03 0.01 0.07 0.01 0.02 0.01 0.06 0.01 0.06 0.02 0.01 0 0.07 0.02 0.04 0.01 0.03 0.01 0.07 0.02 0.02 0 0.05 0.02 0.06 0.02 0.01 0 0.07 0.03 0.04 0.01 0.02 0.01 0.07 0.03 0.02 0.01 0.05 0.01 0.06 0.03 0.01 0 0.06 0.03 0.05 0.02 0.02 0.01 0.06 0.03 0.03 0.01 0.04 0.02 0.06 0.03 0.01 0.01 0.05 0.03 0.05 0.02 0.02 0.01 0.06 0.04 0.03 0.01 0.03 0.02 0.06 0.04 0.01 0 0.05 0.03 0.05 0.04 0.01 0 0.06 0.04 0.03 0.02 0.03 0.02 0.06 0.04 0.01 0.01 0.05 0.03 0.05 0.04 0.01 0.01 0.05 0.04 0.04 0.03 0.02 0.01 0.05 0.05 0.02 0.01 0.04 0.03 0.05 0.05 0.06 0.05 0.03 0.03 0.02 0.01 0.05 0.05 0.02 0.02 0.03 0.03 0.05 0.05 0.01 0 0.04 0.05 0.04 0.04 0.01 0.01 0.05 0.05 0.02 0.03 0.03 0.03 0.05 0.05 0 0.01 0.04 0.05 0.04 0.04 0.01 0.01 0.04 0.06 0.02 0.02 0.02 0.03 0.05 0.06 2.5 0c0.28,0 0.5,0.22 0.5,0.5l0 0c0,0.27 -0.22,0.5 -0.5,0.5l-1.92 0c0.27,0.61 0.42,1.29 0.42,2 0,2.76 -2.24,5 -5,5 -2.76,0 -5,-2.24 -5,-5 0,-0.71 0.15,-1.39 0.42,-2l-1.92 0c-0.28,0 -0.5,-0.23 -0.5,-0.5l0 0c0,-0.28 0.22,-0.5 0.5,-0.5l2.5 0 0.04 -0.06 0.02 -0.03 0.03 -0.02 0.04 -0.06 0.01 -0.01 0.04 -0.04 0.04 -0.05 0 -0.01 0.05 -0.05 0.03 -0.03 0.02 -0.03 0.05 -0.05 0.01 -0.01 0.04 -0.04 0.04 -0.05 0.01 0 0.05 -0.05 0.03 -0.03 0.02 -0.02 0.05 -0.05 0.02 -0.01 0.03 -0.03 0.06 -0.05 0.05 -0.05 0.04 -0.03 0.02 -0.01 0.05 -0.05 0.02 -0.01 0.04 -0.03 0.05 -0.04 0.01 -0.01 0.05 -0.04 0.04 -0.03 0.02 -0.01 0.06 -0.04 0.02 -0.02 0.04 -0.02 0.05 -0.04 0.01 0 0.05 -0.04 0.06 -0.03 0.01 0 0.06 -0.04 0.03 -0.02 0.03 -0.01 0.06 -0.04 0.02 -0.01 0.05 -0.02 0.05 -0.03 0.01 -0.01 0.06 -0.03 0.04 -0.02 0.03 -0.01 0.06 -0.03 0.02 -0.01 0.05 -0.02 0.06 -0.03 0 0 0.07 -0.03 0.05 -0.01 0.02 -0.01 0.07 -0.03 0.02 -0.01 0.04 -0.01 0.07 -0.03 0.01 0 0.06 -0.02 0.05 -0.02 0.02 0 0.07 -0.02 0.03 -0.01 0.04 -0.01 0.07 -0.02 0.01 0 0.06 -0.02 0.06 -0.01 0.01 -0.01 0.08 -0.01 0.03 -0.01 0.04 -0.01 0.07 -0.01 0.01 0 0.06 -0.01 0.07 -0.01 0.01 0 0.07 -0.01 0.04 -0.01 0.04 0 0.07 -0.01 0.02 -0.01 0.05 0 0.07 -0.01 0.01 0 0.07 0 0.05 0 0.03 -0.01 0.08 0 0.02 0 0.05 0 0.08 0z"/>
   <path fill="#082947" d="M353.09 173l0.08 0 0.05 0 0.02 0 0.08 0 0.03 0.01 0.04 0 0.08 0 0 0 0.07 0.01 0.06 0.01 0.02 0 0.07 0.01 0.04 0 0.04 0.01 0.07 0.01 0.01 0 0.06 0.01 0.06 0.01 0.02 0 0.07 0.01 0.04 0.01 0.03 0.01 0.07 0.02 0.02 0 0.06 0.01 0.06 0.02 0.01 0 0.07 0.02 0.04 0.01 0.03 0.01 0.07 0.02 0.02 0 0.05 0.02 0.06 0.02 0.01 0 0.07 0.03 0.04 0.01 0.02 0.01 0.07 0.03 0.02 0.01 0.05 0.02 0.06 0.02 0.01 0 0.06 0.03 0.05 0.02 0.02 0.01 0.06 0.03 0.03 0.01 0.04 0.02 0.06 0.03 0.01 0.01 0.05 0.03 0.05 0.02 0.02 0.01 0.06 0.04 0.03 0.01 0.03 0.02 0.06 0.04 0.01 0 0.05 0.04 0.05 0.03 0.01 0 0.06 0.04 0.03 0.02 0.03 0.02 0.06 0.04 0.01 0.01 0.05 0.04 0.05 0.03 0.01 0.01 0.05 0.04 0.04 0.03 0.02 0.01 0.05 0.05 0.02 0.01 0.04 0.04 0.05 0.04 0 0 0.06 0.05 0.03 0.03 0.02 0.02 0.05 0.04 0.02 0.02 0.03 0.03 0.05 0.05 0.01 0 0.04 0.05 0.04 0.04 0.01 0.02 0.05 0.05 0.02 0.02 0.03 0.03 0.05 0.05 0 0.01 0.04 0.05 0.04 0.04 0.01 0.01 0.04 0.06 0.02 0.02 0.03 0.03 0.04 0.06 2.5 0c0.28,0 0.5,0.22 0.5,0.5l0 0c0,0.28 -0.22,0.5 -0.5,0.5l-1.92 0c0.27,0.61 0.42,1.29 0.42,2 0,2.76 -2.24,5 -5,5 -2.76,0 -5,-2.24 -5,-5 0,-0.71 0.15,-1.39 0.42,-2l-1.92 0c-0.28,0 -0.5,-0.22 -0.5,-0.5l0 0c0,-0.28 0.22,-0.5 0.5,-0.5l2.5 0 0.04 -0.06 0.02 -0.03 0.03 -0.02 0.04 -0.06 0.01 -0.01 0.04 -0.04 0.04 -0.05 0 -0.01 0.05 -0.05 0.03 -0.03 0.02 -0.02 0.05 -0.05 0.01 -0.02 0.03 -0.04 0.05 -0.05 0.01 0 0.04 -0.05 0.04 -0.03 0.02 -0.02 0.05 -0.04 0.02 -0.02 0.03 -0.03 0.06 -0.05 0 0 0.05 -0.04 0.04 -0.04 0.01 -0.01 0.06 -0.05 0.02 -0.01 0.03 -0.03 0.06 -0.04 0.01 -0.01 0.05 -0.03 0.04 -0.04 0.02 -0.01 0.06 -0.04 0.02 -0.02 0.03 -0.02 0.06 -0.04 0.01 0 0.05 -0.03 0.06 -0.04 0 0 0.07 -0.04 0.03 -0.02 0.03 -0.01 0.06 -0.04 0.02 -0.01 0.04 -0.02 0.06 -0.03 0.01 -0.01 0.06 -0.03 0.04 -0.02 0.03 -0.01 0.06 -0.03 0.02 -0.01 0.05 -0.02 0.06 -0.03 0 0 0.07 -0.02 0.05 -0.02 0.02 -0.01 0.07 -0.03 0.02 -0.01 0.04 -0.01 0.07 -0.03 0.01 0 0.06 -0.02 0.05 -0.02 0.02 0 0.07 -0.02 0.03 -0.01 0.04 -0.01 0.07 -0.02 0.01 0 0.06 -0.02 0.06 -0.01 0.01 0 0.08 -0.02 0.03 -0.01 0.04 -0.01 0.07 -0.01 0.01 0 0.06 -0.01 0.07 -0.01 0.01 0 0.07 -0.01 0.04 -0.01 0.04 0 0.07 -0.01 0.02 0 0.05 -0.01 0.07 -0.01 0.01 0 0.07 0 0.05 0 0.03 -0.01 0.08 0 0.02 0 0.05 0 0.08 0zm3.46 3l-6.93 0c-0.34,0.59 -0.53,1.27 -0.53,2 0,2.21 1.79,4 4,4 2.21,0 4,-1.79 4,-4 0,-0.73 -0.19,-1.41 -0.54,-2z"/>
   <path fill="#082947" d="M353.09 185l0.08 0 0.05 0 0.02 0 0.08 0.01 0.03 0 0.04 0 0.08 0.01 0 0 0.07 0 0.06 0.01 0.02 0 0.07 0.01 0.04 0 0.04 0.01 0.07 0.01 0.01 0 0.06 0.01 0.06 0.01 0.02 0 0.07 0.02 0.04 0 0.03 0.01 0.07 0.02 0.02 0 0.06 0.01 0.06 0.02 0.01 0 0.07 0.02 0.04 0.01 0.03 0.01 0.07 0.02 0.02 0.01 0.05 0.01 0.06 0.02 0.01 0 0.07 0.03 0.04 0.01 0.02 0.01 0.07 0.03 0.02 0.01 0.05 0.02 0.06 0.02 0.01 0 0.06 0.03 0.05 0.02 0.02 0.01 0.06 0.03 0.03 0.01 0.04 0.02 0.06 0.04 0.01 0 0.05 0.03 0.05 0.02 0.02 0.01 0.06 0.04 0.03 0.01 0.03 0.02 0.06 0.04 0.01 0.01 0.05 0.03 0.05 0.03 0.01 0 0.06 0.05 0.03 0.02 0.03 0.01 0.06 0.05 0.01 0 0.05 0.04 0.05 0.03 0.01 0.01 0.05 0.04 0.04 0.03 0.02 0.02 0.05 0.04 0.02 0.01 0.04 0.04 0.05 0.04 0 0 0.06 0.05 0.03 0.03 0.02 0.02 0.05 0.05 0.02 0.01 0.03 0.04 0.05 0.04 0.01 0.01 0.04 0.05 0.04 0.03 0.01 0.02 0.05 0.05 0.02 0.02 0.03 0.03 0.05 0.05 0 0.01 0.04 0.05 0.04 0.04 0.01 0.01 0.04 0.06 0.02 0.02 0.03 0.03 0.04 0.06 2.5 0c0.28,0 0.5,0.23 0.5,0.5l0 0c0,0.28 -0.22,0.5 -0.5,0.5l-1.92 0c0.27,0.61 0.42,1.29 0.42,2 0,2.76 -2.24,5 -5,5 -2.76,0 -5,-2.24 -5,-5 0,-0.71 0.15,-1.39 0.42,-2l-1.92 0c-0.28,0 -0.5,-0.22 -0.5,-0.5l0 0c0,-0.27 0.22,-0.5 0.5,-0.5l2.5 0 0.04 -0.06 0.02 -0.03 0.03 -0.02 0.04 -0.06 0.01 -0.01 0.04 -0.04 0.04 -0.05 0 -0.01 0.05 -0.05 0.03 -0.03 0.02 -0.02 0.05 -0.05 0.01 -0.02 0.03 -0.03 0.05 -0.05 0.01 -0.01 0.04 -0.04 0.04 -0.04 0.02 -0.01 0.05 -0.05 0.02 -0.02 0.03 -0.03 0.06 -0.05 0 0 0.05 -0.04 0.04 -0.04 0.01 -0.01 0.06 -0.04 0.02 -0.02 0.03 -0.03 0.06 -0.04 0.01 -0.01 0.05 -0.03 0.04 -0.04 0.02 0 0.06 -0.05 0.02 -0.01 0.03 -0.02 0.06 -0.05 0.01 0 0.05 -0.03 0.06 -0.03 0 -0.01 0.07 -0.04 0.03 -0.02 0.03 -0.01 0.06 -0.04 0.02 -0.01 0.04 -0.02 0.06 -0.03 0.01 0 0.06 -0.04 0.04 -0.02 0.03 -0.01 0.06 -0.03 0.02 -0.01 0.05 -0.02 0.06 -0.03 0 0 0.07 -0.02 0.05 -0.02 0.02 -0.01 0.07 -0.03 0.02 -0.01 0.04 -0.01 0.07 -0.03 0.01 0 0.06 -0.02 0.05 -0.01 0.02 -0.01 0.07 -0.02 0.03 -0.01 0.04 -0.01 0.07 -0.02 0.01 0 0.06 -0.02 0.06 -0.01 0.01 0 0.08 -0.02 0.03 -0.01 0.04 0 0.07 -0.02 0.01 0 0.06 -0.01 0.07 -0.01 0.01 0 0.07 -0.01 0.04 -0.01 0.04 0 0.07 -0.01 0.02 0 0.05 -0.01 0.07 0 0.01 0 0.07 -0.01 0.05 0 0.03 0 0.08 -0.01 0.02 0 0.05 0 0.08 0zm3.46 3l-6.93 0c-0.34,0.59 -0.53,1.27 -0.53,2 0,2.21 1.79,4 4,4 2.21,0 4,-1.79 4,-4 0,-0.73 -0.19,-1.41 -0.54,-2z"/>
   <path fill="white" d="M356.55 188l-6.93 0c-0.34,0.59 -0.53,1.27 -0.53,2 0,2.21 1.79,4 4,4 2.21,0 4,-1.79 4,-4 0,-0.73 -0.19,-1.41 -0.54,-2z"/>
   <rect fill="#082947" x="268" y="181" width="58" height="14" rx="5.46" ry="6"/>
   <rect fill="#BDDFFA" x="270" y="183" width="54" height="10" rx="4" ry="4"/>
   <circle fill="#082947" cx="308" cy="194" r="6"/>
   <circle fill="white" cx="308" cy="194" r="4"/>
   <circle fill="#082947" cx="308" cy="194" r="2"/>
   <circle fill="#082947" cx="282.01" cy="194" r="6"/>
   <circle fill="white" cx="282.01" cy="194" r="4"/>
   <circle fill="#082947" cx="282.01" cy="194" r="2"/>
   <path fill="#082947" d="M294 167c8.96,0 16.54,5.88 19.09,14l-2.12 0c-2.47,-6.99 -9.13,-12 -16.97,-12 -7.84,0 -14.51,5.01 -16.98,12l-2.11 0c2.55,-8.12 10.13,-14 19.09,-14z"/>
   <path fill="white" d="M294 169c7.84,0 14.5,5.01 16.97,12l-33.95 0c2.47,-6.99 9.14,-12 16.98,-12z"/>
   <rect fill="#082947" x="292" y="168.42" width="2" height="26.58"/>
   <path fill="#082947" d="M321 187l3 0 0 2 -3 0c-0.55,0 -1,-0.45 -1,-1l0 0c0,-0.55 0.45,-1 1,-1z"/>
   <path fill="#082947" d="M273 187l-3 0 0 2 3 0c0.55,0 1,-0.45 1,-1l0 0c0,-0.55 -0.45,-1 -1,-1z"/>
   <path fill="#082947" d="M370 184l29 0c0.55,0 1,0.47 1,1l0 0c0,0.54 -0.46,1 -1,1l-29 0 0 -2z"/>
   <path fill="#082947" d="M36 184l-35 0c-0.54,0 -1,0.46 -1,1l0 0c0,0.54 0.45,1 1,1l35 0 0 -2z"/>
   <path fill="#082947" d="M42.38 172.43c0.99,-1.37 1.51,-3.01 1.51,-4.75 0,-4.23 -3.14,-7.68 -7,-7.68 -3.86,0 -7,3.45 -7,7.68 0,1.74 0.52,3.38 1.51,4.75l5.49 7.57 5.49 -7.57z"/>
   <path fill="#FF7878" d="M36.89 176.6l3.87 -5.34c0.76,-1.05 1.13,-2.29 1.13,-3.58 0,-2.83 -2,-5.68 -5,-5.68 -3,0 -5,2.85 -5,5.68 0,1.29 0.37,2.53 1.13,3.58l3.87 5.34z"/>
   <g>
    <circle fill="#082947" cx="36.89" cy="185" r="3"/>
    <circle fill="white" cx="36.89" cy="185" r="1"/>
   </g>
   <path fill="#082947" d="M66.02 178.01c2.2,0 4,1.8 4,4l0 0c0,2.19 -1.8,4 -4,4l-28.13 0 0 -2 28 0c1.1,0 2,-0.9 2,-2l0 0c0,-1.1 -0.9,-2 -2,-2 -4.67,0 -9.34,0 -14,0 -2.2,0 -4,-1.8 -4,-4l0 0c0,-2.2 1.8,-4 4,-4l15.18 0 0 2 -15.05 0c-1.1,0 -2,0.9 -2,2l0 0c0,1.1 0.9,2 2,2 4.67,0 9.33,0 14,0z"/>
   <g>
    <circle fill="#082947" cx="67.02" cy="173.01" r="3"/>
    <circle fill="white" cx="67.02" cy="173.01" r="1"/>
   </g>
   <path fill="#082947" d="M68.02 171l-2 0 0 -10.51 0.21 0c0.99,0 1.79,0.8 1.79,1.78l0 8.73z"/>
   <path fill="#082947" d="M57.02 154.01l10 0c0.55,0 1,0.45 1,1l0 9 -11 0c-0.55,0 -1,-0.45 -1,-1l0 -8c0,-0.55 0.45,-1 1,-1z"/>
   <polygon fill="#48A0DC" points="57.96,156.01 57.96,162.01 65.96,162.01 65.96,156.01 "/>
   <path fill="#082947" d="M39.89 167c0,-1.65 -1.35,-3 -3,-3 -1.65,0 -3,1.35 -3,3 0,1.66 1.35,3 3,3 1.65,0 3,-1.34 3,-3z"/>
   <path fill="white" d="M37.89 167c0,-0.55 -0.45,-1 -1,-1 -0.55,0 -1,0.45 -1,1 0,0.55 0.45,1 1,1 0.55,0 1,-0.45 1,-1z"/>
   <rect fill="#082947" x="130" y="92" width="124" height="90" rx="13.78" ry="8.57"/>
   <rect fill="white" x="132" y="94" width="120" height="86" rx="8" ry="8"/>
   <path fill="#082947" d="M140 98l104 0c2.2,0 4,1.8 4,4l0 56 -112 0 0 -56c0,-2.2 1.8,-4 4,-4z"/>
   <path fill="#F6F5F3" d="M140 100l104 0c1.1,0 2,0.9 2,2l0 54 -108 0 0 -54c0,-1.1 0.9,-2 2,-2z"/>
   <path fill="#082947" d="M140 98l12 0 0 60 -16 0 0 -56c0,-2.21 1.8,-4 4,-4z"/>
   <path fill="#E6E6E6" d="M140 100l10 0 0 56 -12 0 0 -54c0,-1.1 0.9,-2 2,-2z"/>
   <rect fill="#F6F5F3" x="178" y="182" width="28" height="17"/>
   <rect fill="#082947" x="177" y="182" width="2" height="18"/>
   <path fill="#082947" d="M206 186l0 0c0.56,0 1,0.45 1,1l0 13 -2 0 0 -13c0,-0.55 0.45,-1 1,-1z"/>
   <rect fill="#082947" x="167" y="198" width="50" height="2" rx="44.5" ry="10"/>
   <path fill="#082947" d="M141 118l6 0c0.55,0 1,0.45 1,1l0 0c0,0.55 -0.45,1 -1,1l-6 0c-0.55,0 -1,-0.45 -1,-1l0 0c0,-0.55 0.45,-1 1,-1z"/>
   <path fill="#082947" d="M141 122l6 0c0.55,0 1,0.44 1,1l0 0c0,0.55 -0.45,1 -1,1l-6 0c-0.55,0 -1,-0.45 -1,-1l0 0c0,-0.56 0.45,-1 1,-1z"/>
   <path fill="#082947" d="M141 126l6 0c0.55,0 1,0.44 1,1l0 0c0,0.55 -0.45,0.99 -1,0.99l-6 0c-0.55,0 -1,-0.44 -1,-0.99l0 0c0,-0.56 0.45,-1 1,-1z"/>
   <path fill="#082947" d="M141 114l6 0c0.55,0 1,0.45 1,1l0 0c0,0.55 -0.45,1 -1,1l-6 0c-0.55,0 -1,-0.45 -1,-1l0 0c0,-0.55 0.45,-1 1,-1z"/>
   <polygon fill="#082947" points="150,131.99 150,122 248,122 248,131.99 "/>
   <rect fill="#48A0DC" x="152" y="124" width="94" height="6"/>
   <path fill="white" d="M185 125.99l2 0c0.55,0 1,0.45 1,1l0 0.01c0,0.55 -0.45,0.99 -1,0.99l-2 0c-0.55,0 -1,-0.44 -1,-0.99l0 -0.01c0,-0.55 0.45,-1 1,-1zm41.99 0l2 0c0.55,0 1,0.45 1,1l0 0.01c0,0.55 -0.45,0.99 -1,0.99l-2 0c-0.55,0 -1,-0.44 -1,-0.99l0 -0.01c0,-0.55 0.45,-1 1,-1zm6 0l2 0c0.55,0 1,0.45 1,1l0 0.01c0,0.55 -0.45,0.99 -1,0.99l-2 0c-0.55,0 -1,-0.44 -1,-0.99l0 -0.01c0,-0.55 0.45,-1 1,-1zm6 0l2 0c0.55,0 1,0.45 1,1l0 0.01c0,0.55 -0.45,0.99 -1,0.99l-2 0c-0.55,0 -1,-0.44 -1,-0.99l0 -0.01c0,-0.55 0.45,-1 1,-1zm-18 0l2 0c0.55,0 1,0.45 1,1l0 0.01c0,0.55 -0.45,0.99 -1,0.99l-2 0c-0.55,0 -1,-0.44 -1,-0.99l0 -0.01c0,-0.55 0.45,-1 1,-1zm-29.99 0l2 0c0.55,0 1,0.45 1,1l0 0.01c0,0.55 -0.45,0.99 -1,0.99l-2 0c-0.56,0 -1,-0.44 -1,-0.99l0 -0.01c0,-0.55 0.44,-1 1,-1zm5.99 0l2.01 0c0.55,0 1,0.45 1,1l0 0.01c0,0.55 -0.45,0.99 -1,0.99l-2.01 0c-0.55,0 -1,-0.44 -1,-0.99l0 -0.01c0,-0.55 0.45,-1 1,-1zm6 0l2 0c0.56,0 1,0.45 1,1l0 0.01c0,0.55 -0.44,0.99 -1,0.99l-2 0c-0.55,0 -1,-0.44 -1,-0.99l0 -0.01c0,-0.55 0.45,-1 1,-1zm6 0l2 0c0.55,0 1,0.45 1,1l0 0.01c0,0.55 -0.45,0.99 -1,0.99l-2 0c-0.55,0 -1,-0.44 -1,-0.99l0 -0.01c0,-0.55 0.45,-1 1,-1zm6 0l2 0c0.55,0 1,0.45 1,1l0 0.01c0,0.55 -0.45,0.99 -1,0.99l-2 0c-0.55,0 -1,-0.44 -1,-0.99l0 -0.01c0,-0.55 0.45,-1 1,-1zm-59.99 0l2 0c0.55,0 1,0.45 1,1l0 0.01c0,0.55 -0.45,0.99 -1,0.99l-2 0c-0.55,0 -1,-0.44 -1,-0.99l0 -0.01c0,-0.55 0.45,-1 1,-1zm6 0l2 0c0.55,0 1,0.45 1,1l0 0.01c0,0.55 -0.45,0.99 -1,0.99l-2 0c-0.55,0 -1,-0.44 -1,-0.99l0 -0.01c0,-0.55 0.45,-1 1,-1zm6 0l2 0c0.55,0 1,0.45 1,1l0 0.01c0,0.55 -0.45,0.99 -1,0.99l-2 0c-0.55,0 -1,-0.44 -1,-0.99l0 -0.01c0,-0.55 0.45,-1 1,-1zm6 0l2 0c0.55,0 1,0.45 1,1l0 0.01c0,0.55 -0.45,0.99 -1,0.99l-2 0c-0.55,0 -1,-0.44 -1,-0.99l0 -0.01c0,-0.55 0.45,-1 1,-1zm6 0l2 0c0.55,0 1,0.45 1,1l0 0.01c0,0.55 -0.45,0.99 -1,0.99l-2 0c-0.55,0 -1,-0.44 -1,-0.99l0 -0.01c0,-0.55 0.45,-1 1,-1z"/>
   <path fill="#082947" d="M182.64 130l0 4c0,3.3 -2.7,5.99 -6,5.99l-26.64 0 0 -9.99 2 0c12.88,0 15.76,0 28.64,0l2 0z"/>
   <path fill="#A9C87B" d="M180.64 131.99l0 2.01c0,2.2 -1.8,3.99 -4,3.99l-24.64 0 0 -6c13.54,0 15.09,0 28.64,0z"/>
   <path fill="#082947" d="M235.01 114l-3 0 0 1c0,1.64 -1.35,3 -3,3 -1.66,0 -3,-1.35 -3,-3l0 -1 -19.38 0c0,5.33 0,26.66 0,32 0,2.2 -1.79,3.99 -4,3.99l-34 0c-2.2,0 -4,-1.79 -4,-4 0,-6 0,-23.99 0,-29.99 -4.87,0 -7.75,0 -12.63,0l-2 0 0 -6 16.63 0c2.21,0 4,1.79 4,4 0,6 0,23.99 0,29.99l30 0 0 -31.99c0,-2.21 1.8,-4 4,-4l30.38 0c1.65,0 3,1.34 3,3 0,1.65 -1.35,3 -3,3z"/>
   <path fill="white" d="M235.01 112l-5 0 0 3c0,0.53 -0.46,1 -1,1l0 0c-0.54,0 -1,-0.45 -1,-1l0 -3 -22.38 0c-0.54,0 -1,0.45 -1,1 0,5.66 0,27.33 0,33 0,1.1 -0.9,1.99 -2,1.99l0 0 -34 0c-1.1,0 -2,-0.89 -2,-2 0,-5.87 0,-25.12 0,-30.99 0,-0.56 -0.44,-1 -1,-1 -5.21,0 -8.42,0 -13.63,0l0 -2 14.63 0c1.1,0 2,0.89 2,2 0,6.33 0,24.66 0,31 0,0.55 0.46,0.99 1,0.99 9.34,0 22.67,0 32,0 0.54,0 1,-0.47 1,-0.99l0 -33 0 0c0,-1.07 0.93,-2 2,-2 10.79,0 19.58,0 30.38,0 0.55,0 1,0.46 1,1l0 0c0,0.53 -0.46,1 -1,1z"/>
   <path fill="#BDDFFA" d="M252 162l0 10c0,4.4 -3.6,8 -8,8l-104 0c-4.4,0 -8,-3.6 -8,-8l0 -10 120 0z"/>
   <rect fill="#082947" x="130" y="162" width="124" height="2"/>
   <path fill="white" d="M214 117.99c15.47,0 28,12.54 28,28 0,8.56 -3.84,16.22 -9.89,21.36l11.73 20.31c1.38,2.4 0.58,5.63 -1.94,6.89 -2.4,1.19 -5.36,0.48 -6.72,-1.89l-11.73 -20.3c-2.95,1.05 -6.13,1.63 -9.45,1.63 -15.46,0 -28,-12.54 -28,-28 0,-15.46 12.54,-28 28,-28z"/>
   <path fill="#F6F5F3" d="M203 126.94c-10.5,6.06 -14.12,19.54 -8.05,30.05 6.07,10.51 19.55,14.12 30.06,8.06 10.5,-6.07 14.12,-19.55 8.05,-30.06 -6.07,-10.51 -19.55,-14.12 -30.06,-8.05z"/>
   <path fill="#082947" d="M229.52 166.86l12.58 21.8c0.83,1.43 0.38,3.36 -1.09,4.1l-0.01 0c-1.47,0.74 -3.27,0.33 -4.09,-1.1l-12.59 -21.8c-11.96,5.18 -26.16,0.69 -32.83,-10.87 -7.18,-12.43 -2.92,-28.34 9.51,-35.52 12.44,-7.18 28.34,-2.91 35.52,9.52 6.67,11.56 3.46,26.11 -7,33.87zm-27.52 -41.65c11.48,-6.63 26.16,-2.7 32.79,8.78 6.63,11.48 2.69,26.16 -8.78,32.79 -11.48,6.63 -26.16,2.69 -32.79,-8.79 -6.63,-11.48 -2.7,-26.16 8.78,-32.78z"/>
   <path fill="#082947" d="M192.84 152l42.32 0c-0.39,1.38 -0.92,2.72 -1.57,4l-39.18 0c-0.67,-1.3 -1.19,-2.64 -1.57,-4z"/>
   <path fill="white" d="M219.02 161.1c-2.42,-3.65 -7.57,-10.17 -8.74,-14.06 -0.38,-1.27 -0.6,-2.62 -0.6,-3.94 0,-6.09 4.89,-11.1 11,-11.1 6.12,0 11,5.01 11,11.1 0,1.32 -0.22,2.67 -0.6,3.94 -1.16,3.89 -6.31,10.41 -8.73,14.06l-1.67 2.53 -1.66 -2.53z"/>
   <path fill="#082947" d="M220.68 160c2.02,-3.06 7.58,-10.52 8.49,-13.53 0.33,-1.12 0.51,-2.28 0.51,-3.37 0,-5.03 -4.03,-9.1 -9,-9.1 -4.97,0 -9,4.07 -9,9.1 0,1.09 0.18,2.25 0.52,3.37 0.9,3.01 6.46,10.47 8.48,13.53z"/>
   <path fill="#FF7878" d="M220.68 156.49c2.42,-3.4 5.83,-8.11 6.57,-10.6 0.27,-0.89 0.43,-1.85 0.43,-2.79 0,-3.88 -3.09,-7.1 -7,-7.1 -3.9,0 -7,3.22 -7,7.1 0,0.94 0.17,1.9 0.43,2.79 0.75,2.49 4.16,7.2 6.57,10.6z"/>
   <path fill="#082947" d="M220.68 138.55c2.49,0 4.5,2.04 4.5,4.55 0,2.52 -2.01,4.55 -4.5,4.55 -2.48,0 -4.5,-2.03 -4.5,-4.55 0,-2.51 2.02,-4.55 4.5,-4.55z"/>
   <path fill="white" d="M220.68 140.55c-1.4,0 -2.5,1.16 -2.5,2.55 0,1.39 1.1,2.55 2.5,2.55 1.4,0 2.5,-1.16 2.5,-2.55 0,-1.39 -1.1,-2.55 -2.5,-2.55z"/>
   <g>
    <path fill="#082947" d="M167 46.01l-1.44 -0.36c-0.3,-1.11 -0.74,-2.16 -1.31,-3.14l0.77 -1.28c0.24,-0.45 0.39,-1.02 0,-1.41l-2.83 -2.83c-0.17,-0.18 -0.39,-0.25 -0.61,-0.25 -0.28,0 -0.56,0.11 -0.8,0.25l-1.29 0.77c-0.97,-0.56 -2.02,-1 -3.13,-1.29l-0.36 -1.46c-0.16,-0.49 -0.45,-1 -1,-1l-4 0c-0.55,0 -0.88,0.51 -1,1l-0.36 1.46c-1.11,0.29 -2.16,0.73 -3.13,1.29l-1.29 -0.77c-0.24,-0.14 -0.52,-0.25 -0.8,-0.25 -0.22,0 -0.44,0.07 -0.61,0.25l-2.83 2.83c-0.39,0.39 -0.24,0.96 0,1.41l0.77 1.28c-0.57,0.97 -1.01,2.03 -1.31,3.14l-1.44 0.36c-0.49,0.12 -1,0.45 -1,1l0 4c0,0.55 0.51,0.84 1,1l1.44 0.36c0.3,1.11 0.74,2.17 1.31,3.14l-0.77 1.28c-0.26,0.43 -0.39,1.02 0,1.41l2.83 2.83c0.17,0.17 0.37,0.24 0.59,0.24 0.28,0 0.56,-0.11 0.82,-0.24l1.29 -0.77c0.97,0.56 2.02,1 3.13,1.3l0.36 1.45c0.12,0.49 0.45,1 1,1l4 0c0.55,0 0.84,-0.51 1,-1l0.36 -1.46c1.11,-0.29 2.16,-0.73 3.13,-1.29l1.29 0.77c0.25,0.13 0.54,0.24 0.82,0.24 0.21,0 0.42,-0.07 0.59,-0.24l2.83 -2.83c0.39,-0.39 0.26,-0.98 0,-1.41l-0.77 -1.28c0.57,-0.97 1.01,-2.03 1.31,-3.14l1.44 -0.36c0.49,-0.16 1,-0.45 1,-1l0 -4c0,-0.55 -0.51,-0.88 -1,-1z"/>
    <path fill="white" d="M166 47.82l-2.07 -0.52 -0.31 -1.13c-0.24,-0.93 -0.62,-1.82 -1.1,-2.65l-0.59 -1.03 1.1 -1.83 -1.68 -1.68 -1.84 1.1 -1.02 -0.59c-0.83,-0.48 -1.72,-0.85 -2.65,-1.09l-1.13 -0.31 -0.52 -2.08 -2.38 0 -0.52 2.08 -1.14 0.31c-0.92,0.25 -1.81,0.61 -2.64,1.09l-1.02 0.59 -1.84 -1.1 -1.68 1.68 1.1 1.84 -0.59 1.02c-0.49,0.83 -0.86,1.72 -1.11,2.65l-0.3 1.13 -2.07 0.52 0 2.38 2.07 0.52 0.3 1.13c0.25,0.93 0.62,1.82 1.11,2.65l0.59 1.02 -1.1 1.84 1.68 1.68 1.84 -1.1 1.01 0.59c0.84,0.47 1.72,0.84 2.65,1.09l1.14 0.31 0.52 2.08 2.38 0 0.52 -2.08 1.14 -0.31c0.92,-0.25 1.81,-0.61 2.64,-1.09l1.02 -0.59 1.84 1.1 1.68 -1.68 -1.1 -1.84 0.59 -1.02c0.49,-0.83 0.86,-1.72 1.1,-2.65l0.31 -1.13 2.07 -0.52 0 -2.38z"/>
    <g>
     <path fill="#082947" fill-rule="nonzero" d="M143.81 49.01c0,2.07 0.71,4.11 2,5.73 0.13,0.16 0.32,0.24 0.51,0.24 0.15,0 0.29,-0.04 0.42,-0.14 0.28,-0.23 0.33,-0.65 0.1,-0.93 -1.12,-1.41 -1.71,-3.1 -1.71,-4.9 0,-4.34 3.53,-7.87 7.87,-7.87 0.84,0 1.66,0.13 2.46,0.39 0.34,0.11 0.72,-0.08 0.83,-0.42 0.11,-0.35 -0.08,-0.73 -0.42,-0.84 -0.93,-0.3 -1.89,-0.45 -2.87,-0.45 -5.07,0 -9.19,4.12 -9.19,9.19z"/>
     <path fill="#082947" fill-rule="nonzero" d="M160.87 49.01c0,4.34 -3.53,7.87 -7.87,7.87 -1.26,0 -2.46,-0.29 -3.57,-0.85 -0.32,-0.17 -0.72,-0.04 -0.89,0.28 -0.16,0.33 -0.03,0.73 0.29,0.89 1.3,0.67 2.7,1 4.17,1 5.07,0 9.19,-4.12 9.19,-9.19 0,-2.24 -0.81,-4.39 -2.28,-6.06 -0.24,-0.28 -0.66,-0.3 -0.93,-0.06 -0.28,0.24 -0.31,0.66 -0.06,0.93 1.25,1.43 1.95,3.28 1.95,5.19z"/>
    </g>
    <path fill="#BDDFFA" d="M153 41.01c4.42,0 8,3.58 8,8 0,4.42 -3.58,8 -8,8 -4.42,0 -8,-3.58 -8,-8 0,-4.42 3.58,-8 8,-8zm0 6c-1.11,0 -2,0.89 -2,2 0,1.11 0.89,2 2,2 1.11,0 2,-0.89 2,-2 0,-1.11 -0.89,-2 -2,-2z"/>
    <path fill="#082947" d="M153 43.01c3.31,0 6,2.69 6,6 0,3.31 -2.69,6 -6,6 -3.31,0 -6,-2.69 -6,-6 0,-3.31 2.69,-6 6,-6zm0 2c2.21,0 4,1.79 4,4 0,2.21 -1.79,4 -4,4 -2.21,0 -4,-1.79 -4,-4 0,-2.21 1.79,-4 4,-4z"/>
    <circle fill="#BDDFFA" cx="153" cy="49.01" r="4"/>
   </g>
   <g>
    <path fill="#082947" d="M228.26 11.61l-11.32 -11.32c-0.39,-0.39 -1.02,-0.39 -1.41,0l-5.66 5.66c-0.39,0.39 -0.39,1.03 0,1.42l11.32 11.31c0.39,0.39 1.02,0.39 1.41,0l2.12 -2.12 1.41 1.41 -5.08 5.08c-4.11,-0.82 -8.55,0.36 -11.74,3.55 -0.48,0.48 -0.92,0.99 -1.31,1.52l18.17 18.17c0.53,-0.39 1.04,-0.82 1.53,-1.3 3.31,-3.32 4.46,-7.98 3.44,-12.23l4.89 -4.89 1.42 1.41 -2.13 2.12c-0.39,0.39 -0.39,1.03 0,1.42l11.32 11.31c0.39,0.39 1.02,0.39 1.41,0l5.66 -5.66c0.39,-0.39 0.39,-1.02 0,-1.41l-11.32 -11.32c-0.39,-0.39 -1.02,-0.38 -1.41,0l-2.12 2.13 -1.41 -1.42 6.36 -6.36c0.39,-0.39 0.39,-1.02 0,-1.41l-8.49 -8.49c-0.39,-0.39 -1.02,-0.39 -1.41,0l-6.36 6.36 -1.41 -1.41 2.12 -2.12c0.39,-0.39 0.39,-1.02 0,-1.41zm-19.51 20.08c-2.57,3.89 -2.15,9.17 1.27,12.59 3.42,3.42 8.7,3.84 12.58,1.27l-1.45 -1.45c-3.07,1.81 -7.08,1.4 -9.72,-1.24 -2.63,-2.63 -3.04,-6.65 -1.23,-9.71l-1.45 -1.46zm2.92 2.93c-1.06,2.23 -0.67,4.98 1.18,6.83 1.84,1.85 4.59,2.24 6.82,1.17l-1.55 -1.55c-1.33,0.36 -2.81,0.01 -3.86,-1.03 -1.05,-1.05 -1.39,-2.53 -1.04,-3.87l-1.55 -1.55zm33.56 -20.18l-5.67 -5.67c-0.39,-0.38 -1.01,-0.39 -1.4,0l0 0c-0.39,0.39 -0.39,1.02 0,1.41l5.66 5.66c0.39,0.39 1.02,0.39 1.41,0l0 0c0.39,-0.38 0.38,-1.01 0,-1.4z"/>
    <rect fill="#BDDFFA" transform="matrix(-0.707107 -0.707107 -0.707107 0.707107 226.137 12.3139)" width="14" height="6"/>
    <rect fill="#BDDFFA" transform="matrix(-0.707107 -0.707107 -0.707107 0.707107 251.589 37.7654)" width="14" height="6"/>
    <path fill="white" d="M241.69 19.38l-11.25 11.25c-0.64,-1.46 -1.55,-2.83 -2.74,-4.03 -1.26,-1.25 -2.71,-2.2 -4.26,-2.83l-0.14 -0.14 11.32 -11.32 7.07 7.07z"/>
    <path fill="#BDDFFA" d="M226.28 43.57l-15.56 -15.55c4.3,-4.3 11.26,-4.3 15.56,0 4.3,4.29 4.3,11.26 0,15.55z"/>
   </g>
   <path fill="#FF7878" d="M356.55 164l-6.93 0c-0.34,0.59 -0.53,1.27 -0.53,2 0,2.21 1.79,4 4,4 2.21,0 4,-1.79 4,-4 0,-0.73 -0.19,-1.41 -0.54,-2z"/>
   <circle fill="#082947" cx="144" cy="107.99" r="4"/>
   <circle fill="#FF7878" cx="144" cy="107.99" r="2"/>
  </g>
 </g>
</svg>
