<?xml version="1.0" encoding="UTF-8"?>
<!DOCTYPE svg PUBLIC "-//W3C//DTD SVG 1.1//EN" "http://www.w3.org/Graphics/SVG/1.1/DTD/svg11.dtd">
<!-- Creator: CorelDRAW 2017 -->
<svg xmlns="http://www.w3.org/2000/svg" xml:space="preserve" width="24px" height="24px" version="1.1" shape-rendering="geometricPrecision" text-rendering="geometricPrecision" image-rendering="optimizeQuality" fill-rule="evenodd" clip-rule="evenodd"
viewBox="0 0 24 24"
 xmlns:xlink="http://www.w3.org/1999/xlink">
 <g id="Layer_x0020_1">
  <metadata id="CorelCorpID_0Corel-Layer"/>
  <path fill="black" d="M23.199 7.056l-1.645 0 -17.167 -5.472c-0.079,-0.025 -0.16,-0.038 -0.242,-0.038 -0.351,0 -0.659,0.224 -0.765,0.558l-0.372 1.167c-0.065,0.203 -0.046,0.42 0.052,0.611 0.098,0.19 0.265,0.331 0.468,0.396l16.764 5.343 0 12.032c0,0.442 0.36,0.801 0.802,0.801l2.105 0c0.442,0 0.801,-0.359 0.801,-0.801l0 -13.796c0,-0.442 -0.359,-0.801 -0.801,-0.801zm-5.539 4.543c-0.08,0 -0.162,0.012 -0.245,0.034l-0.929 0.256 -0.965 -2.351c-0.274,-0.666 -1.082,-1.208 -1.802,-1.208l-9.033 0c-0.72,0 -1.528,0.542 -1.802,1.208l-0.964 2.348 -0.917 -0.253c-0.083,-0.022 -0.165,-0.034 -0.245,-0.034 -0.439,0 -0.758,0.336 -0.758,0.798l0 0.548c0,0.54 0.439,0.979 0.979,0.979l0.105 0 -0.156 0.379c-0.254,0.619 -0.461,1.667 -0.461,2.336l0 4.671c0,0.539 0.44,0.978 0.979,0.978l1.279 0c0.539,0 0.978,-0.439 0.978,-0.978l0 -1.167 10.999 0 0 1.167c0,0.539 0.439,0.978 0.979,0.978l1.278 0c0.54,0 0.979,-0.439 0.979,-0.978l0 -4.671c0,-0.669 -0.207,-1.717 -0.461,-2.336l-0.156 -0.379 0.118 0c0.54,0 0.98,-0.439 0.98,-0.979l0 -0.548c-0.001,-0.462 -0.32,-0.798 -0.759,-0.798zm-15.038 1.793l1.46 -3.556c0.164,-0.399 0.65,-0.725 1.081,-0.725l8.079 0c0.431,0 0.917,0.326 1.081,0.725l1.46 3.556c0.163,0.399 -0.055,0.724 -0.486,0.724l-12.189 0c-0.431,0 -0.649,-0.325 -0.486,-0.724zm3.26 4.498c0,0.216 -0.177,0.392 -0.392,0.392l-2.774 0c-0.215,0 -0.391,-0.176 -0.391,-0.392l0 -1.33c0,-0.216 0.176,-0.392 0.391,-0.392l2.774 0c0.215,0 0.391,0.176 0.391,0.392l0 1.33 0.001 0zm10.172 0c0,0.216 -0.177,0.392 -0.392,0.392l-2.773 0c-0.216,0 -0.392,-0.176 -0.392,-0.392l0 -1.33c0,-0.216 0.177,-0.392 0.392,-0.392l2.773 0c0.216,0 0.392,0.176 0.392,0.392l0 1.33zm-10.437 -14.877l-0.259 0.811c-0.065,0.206 -0.256,0.337 -0.461,0.337 -0.048,0 -0.098,-0.007 -0.147,-0.023 -0.254,-0.081 -0.395,-0.353 -0.314,-0.608l0.259 -0.811c0.081,-0.255 0.353,-0.395 0.608,-0.314 0.254,0.081 0.395,0.353 0.314,0.608zm2.833 0.903l-0.259 0.811c-0.065,0.206 -0.256,0.337 -0.461,0.337 -0.048,0 -0.098,-0.007 -0.147,-0.023 -0.254,-0.081 -0.395,-0.353 -0.314,-0.608l0.259 -0.811c0.081,-0.255 0.353,-0.395 0.608,-0.314 0.254,0.081 0.395,0.353 0.314,0.608zm2.833 0.903l-0.259 0.811c-0.065,0.206 -0.255,0.337 -0.46,0.337 -0.049,0 -0.099,-0.007 -0.147,-0.023 -0.255,-0.081 -0.396,-0.353 -0.315,-0.608l0.259 -0.811c0.081,-0.255 0.353,-0.395 0.608,-0.314 0.254,0.081 0.395,0.353 0.314,0.608zm2.833 0.903l-0.258 0.811c-0.066,0.206 -0.256,0.337 -0.462,0.337 -0.048,0 -0.098,-0.007 -0.146,-0.023 -0.255,-0.081 -0.396,-0.353 -0.315,-0.608l0.259 -0.811c0.081,-0.254 0.353,-0.395 0.608,-0.314 0.254,0.081 0.395,0.354 0.314,0.608zm2.833 0.903l-0.258 0.811c-0.066,0.206 -0.256,0.338 -0.461,0.338 -0.049,0 -0.098,-0.008 -0.147,-0.023 -0.255,-0.082 -0.396,-0.354 -0.315,-0.608l0.259 -0.812c0.081,-0.254 0.353,-0.395 0.608,-0.314 0.255,0.081 0.395,0.354 0.314,0.608zm2.833 0.903l-0.259 0.811c-0.065,0.206 -0.255,0.337 -0.46,0.337 -0.049,0 -0.099,-0.007 -0.147,-0.023 -0.255,-0.081 -0.395,-0.353 -0.314,-0.608l0.258 -0.811c0.081,-0.254 0.353,-0.395 0.608,-0.314 0.254,0.081 0.395,0.353 0.314,0.608z"/>
 </g>
</svg>
