<?xml version="1.0" encoding="UTF-8"?>
<!DOCTYPE svg PUBLIC "-//W3C//DTD SVG 1.1//EN" "http://www.w3.org/Graphics/SVG/1.1/DTD/svg11.dtd">
<!-- Creator: CorelDRAW 2017 -->
<svg xmlns="http://www.w3.org/2000/svg" xml:space="preserve" width="28px" height="37px" version="1.1" shape-rendering="geometricPrecision" text-rendering="geometricPrecision" image-rendering="optimizeQuality" fill-rule="evenodd" clip-rule="evenodd"
viewBox="0 0 0.669 0.879"
 xmlns:xlink="http://www.w3.org/1999/xlink">
 <g id="Layer_x0020_1">
  <metadata id="CorelCorpID_0Corel-Layer"/>
  <polygon fill="none" points="0.645,0.788 0.024,0.788 0.024,0.024 0.645,0.024 "/>
  <g id="_1360555041952">
   <path id="Oval-3-Copy" fill="black" fill-opacity="0.035294" d="M0.478 0.795c0,-0.046 -0.064,-0.084 -0.144,-0.084 -0.079,0 -0.143,0.038 -0.143,0.084 0,0.046 0.064,0.084 0.143,0.084 0.08,0 0.144,-0.038 0.144,-0.084z"/>
   <path id="Oval-3" fill="black" fill-opacity="0.035294" d="M0.43 0.795c0,-0.026 -0.043,-0.048 -0.096,-0.048 -0.052,0 -0.095,0.022 -0.095,0.048 0,0.026 0.043,0.048 0.095,0.048 0.053,0 0.096,-0.022 0.096,-0.048z"/>
  </g>
  <path fill="#FDFDFD" d="M0.484 0.634c-0.051,0.035 -0.09,0.091 -0.11,0.149 -0.005,0.017 -0.021,0.029 -0.04,0.029 -0.018,0 -0.034,-0.012 -0.039,-0.029 -0.02,-0.058 -0.059,-0.114 -0.11,-0.149 -0.114,-0.057 -0.185,-0.173 -0.185,-0.3 0,-0.184 0.15,-0.334 0.334,-0.334 0.185,0 0.335,0.15 0.335,0.334 0,0.127 -0.072,0.243 -0.185,0.3z"/>
  <path fill="#0DCBE7" d="M0.334 0.024c0.172,0 0.311,0.139 0.311,0.31 0,0.122 -0.07,0.228 -0.173,0.279 -0.056,0.037 -0.099,0.098 -0.121,0.163l0 0 0 0c-0.002,0.007 -0.009,0.012 -0.017,0.012 -0.007,0 -0.014,-0.005 -0.016,-0.012l0 0 0 0c-0.022,-0.065 -0.065,-0.126 -0.121,-0.163 -0.103,-0.051 -0.173,-0.157 -0.173,-0.279 0,-0.171 0.139,-0.31 0.31,-0.31z"/>
 </g>
</svg>
