<?xml version="1.0" encoding="UTF-8"?>
<!DOCTYPE svg PUBLIC "-//W3C//DTD SVG 1.1//EN" "http://www.w3.org/Graphics/SVG/1.1/DTD/svg11.dtd">
<!-- Creator: CorelDRAW 2017 -->
<svg xmlns="http://www.w3.org/2000/svg" xml:space="preserve" width="28px" height="37px" version="1.1" shape-rendering="geometricPrecision" text-rendering="geometricPrecision" image-rendering="optimizeQuality" fill-rule="evenodd" clip-rule="evenodd"
viewBox="0 0 0.705 0.926"
 xmlns:xlink="http://www.w3.org/1999/xlink">
 <g id="Layer_x0020_1">
  <metadata id="CorelCorpID_0Corel-Layer"/>
  <polygon fill="none" points="0.68,0.831 0.025,0.831 0.025,0.025 0.68,0.025 "/>
  <g id="_1360600190896">
   <path id="Oval-3-Copy" fill="black" fill-opacity="0.035294" d="M0.504 0.838c0,-0.049 -0.068,-0.088 -0.151,-0.088 -0.084,0 -0.152,0.039 -0.152,0.088 0,0.049 0.068,0.088 0.152,0.088 0.083,0 0.151,-0.039 0.151,-0.088z"/>
   <path id="Oval-3" fill="black" fill-opacity="0.035294" d="M0.453 0.838c0,-0.028 -0.045,-0.05 -0.1,-0.05 -0.056,0 -0.101,0.022 -0.101,0.05 0,0.028 0.045,0.05 0.101,0.05 0.055,0 0.1,-0.022 0.1,-0.05z"/>
  </g>
  <path fill="#FDFDFD" d="M0.511 0.668c-0.055,0.037 -0.096,0.096 -0.117,0.157 -0.006,0.019 -0.022,0.031 -0.041,0.031 -0.02,0 -0.036,-0.012 -0.042,-0.031 -0.021,-0.061 -0.062,-0.12 -0.116,-0.157 -0.12,-0.06 -0.195,-0.182 -0.195,-0.315 0,-0.195 0.158,-0.353 0.353,-0.353 0.194,0 0.352,0.158 0.352,0.353 0,0.133 -0.075,0.255 -0.194,0.315z"/>
  <path fill="#2886FC" d="M0.353 0.025c0.18,0 0.327,0.147 0.327,0.328 0,0.128 -0.074,0.239 -0.182,0.293 -0.059,0.039 -0.105,0.103 -0.128,0.172l0 0 0 0c-0.002,0.007 -0.009,0.013 -0.017,0.013 -0.009,0 -0.016,-0.006 -0.018,-0.013l0 0 0 0c-0.023,-0.069 -0.069,-0.133 -0.128,-0.172 -0.108,-0.054 -0.182,-0.165 -0.182,-0.293 0,-0.181 0.147,-0.328 0.328,-0.328z"/>
 </g>
</svg>
