<?xml version="1.0" encoding="UTF-8"?>
<!DOCTYPE svg PUBLIC "-//W3C//DTD SVG 1.1//EN" "http://www.w3.org/Graphics/SVG/1.1/DTD/svg11.dtd">
<!-- Creator: CorelDRAW 2017 -->
<svg xmlns="http://www.w3.org/2000/svg" xml:space="preserve" width="28px" height="37px" version="1.1" shape-rendering="geometricPrecision" text-rendering="geometricPrecision" image-rendering="optimizeQuality" fill-rule="evenodd" clip-rule="evenodd"
viewBox="0 0 0.841 1.105"
 xmlns:xlink="http://www.w3.org/1999/xlink">
 <g id="Layer_x0020_1">
  <metadata id="CorelCorpID_0Corel-Layer"/>
  <polygon fill="none" points="0.811,0.991 0.03,0.991 0.03,0.03 0.811,0.03 "/>
  <g id="_1360565505888">
   <path id="Oval-3-Copy" fill="black" fill-opacity="0.035294" d="M0.601 1c0,-0.058 -0.081,-0.105 -0.18,-0.105 -0.1,0 -0.181,0.047 -0.181,0.105 0,0.058 0.081,0.105 0.181,0.105 0.099,0 0.18,-0.047 0.18,-0.105z"/>
   <path id="Oval-3" fill="black" fill-opacity="0.035294" d="M0.541 1c0,-0.033 -0.054,-0.06 -0.12,-0.06 -0.067,0 -0.121,0.027 -0.121,0.06 0,0.033 0.054,0.06 0.121,0.06 0.066,0 0.12,-0.027 0.12,-0.06z"/>
  </g>
  <path fill="#FDFDFD" d="M0.609 0.797c-0.065,0.044 -0.114,0.114 -0.139,0.188 -0.007,0.022 -0.027,0.036 -0.049,0.036 -0.023,0 -0.043,-0.014 -0.05,-0.036 -0.025,-0.074 -0.074,-0.144 -0.139,-0.188 -0.142,-0.072 -0.232,-0.217 -0.232,-0.376 0,-0.233 0.188,-0.421 0.421,-0.421 0.232,0 0.42,0.188 0.42,0.421 0,0.159 -0.09,0.304 -0.232,0.376z"/>
  <path fill="#FF5777" d="M0.421 0.03c0.215,0 0.39,0.175 0.39,0.391 0,0.153 -0.088,0.286 -0.217,0.35 -0.07,0.047 -0.125,0.123 -0.152,0.205l0 0 -0.001 0c-0.002,0.009 -0.01,0.015 -0.02,0.015 -0.01,0 -0.019,-0.006 -0.021,-0.015l0 0 0 0c-0.028,-0.082 -0.082,-0.158 -0.153,-0.205 -0.128,-0.064 -0.217,-0.197 -0.217,-0.35 0,-0.216 0.175,-0.391 0.391,-0.391z"/>
 </g>
</svg>
