<?xml version="1.0" encoding="UTF-8"?>
<!DOCTYPE svg PUBLIC "-//W3C//DTD SVG 1.1//EN" "http://www.w3.org/Graphics/SVG/1.1/DTD/svg11.dtd">
<!-- Creator: CorelDRAW 2017 -->
<svg xmlns="http://www.w3.org/2000/svg" xml:space="preserve" width="28px" height="37px" version="1.1" shape-rendering="geometricPrecision" text-rendering="geometricPrecision" image-rendering="optimizeQuality" fill-rule="evenodd" clip-rule="evenodd"
viewBox="0 0 0.79 1.038"
 xmlns:xlink="http://www.w3.org/1999/xlink">
 <g id="Layer_x0020_1">
  <metadata id="CorelCorpID_0Corel-Layer"/>
  <polygon fill="none" points="0.762,0.931 0.028,0.931 0.028,0.028 0.762,0.028 "/>
  <g id="_1360556758848">
   <path id="Oval-3-Copy" fill="black" fill-opacity="0.035294" d="M0.565 0.939c0,-0.054 -0.076,-0.098 -0.17,-0.098 -0.093,0 -0.169,0.044 -0.169,0.098 0,0.055 0.076,0.099 0.169,0.099 0.094,0 0.17,-0.044 0.17,-0.099z"/>
   <path id="Oval-3" fill="black" fill-opacity="0.035294" d="M0.508 0.939c0,-0.031 -0.051,-0.056 -0.113,-0.056 -0.062,0 -0.113,0.025 -0.113,0.056 0,0.031 0.051,0.057 0.113,0.057 0.062,0 0.113,-0.026 0.113,-0.057z"/>
  </g>
  <path fill="#FDFDFD" d="M0.572 0.748c-0.061,0.042 -0.107,0.108 -0.13,0.177 -0.007,0.021 -0.025,0.035 -0.047,0.035 -0.021,0 -0.04,-0.014 -0.046,-0.035 -0.024,-0.069 -0.07,-0.135 -0.131,-0.177 -0.134,-0.067 -0.218,-0.203 -0.218,-0.353 0,-0.218 0.177,-0.395 0.395,-0.395 0.218,0 0.395,0.177 0.395,0.395 0,0.15 -0.084,0.286 -0.218,0.353z"/>
  <path fill="#2DC066" d="M0.395 0.028c0.203,0 0.367,0.165 0.367,0.367 0,0.144 -0.083,0.269 -0.204,0.329 -0.066,0.044 -0.117,0.116 -0.143,0.193l0 0 0 0c-0.003,0.008 -0.011,0.014 -0.02,0.014 -0.009,0 -0.017,-0.006 -0.019,-0.014l-0.001 0 0 0c-0.026,-0.077 -0.077,-0.149 -0.143,-0.193 -0.121,-0.06 -0.204,-0.185 -0.204,-0.329 0,-0.202 0.165,-0.367 0.367,-0.367z"/>
 </g>
</svg>
