<?xml version="1.0" encoding="UTF-8"?>
<!DOCTYPE svg PUBLIC "-//W3C//DTD SVG 1.1//EN" "http://www.w3.org/Graphics/SVG/1.1/DTD/svg11.dtd">
<!-- Creator: CorelDRAW 2017 -->
<svg xmlns="http://www.w3.org/2000/svg" xml:space="preserve" width="28px" height="37px" version="1.1" shape-rendering="geometricPrecision" text-rendering="geometricPrecision" image-rendering="optimizeQuality" fill-rule="evenodd" clip-rule="evenodd"
viewBox="0 0 0.745 0.979"
 xmlns:xlink="http://www.w3.org/1999/xlink">
 <g id="Layer_x0020_1">
  <metadata id="CorelCorpID_0Corel-Layer"/>
  <polygon fill="none" points="0.719,0.878 0.027,0.878 0.027,0.027 0.719,0.027 "/>
  <g id="_1360561683072">
   <path id="Oval-3-Copy" fill="black" fill-opacity="0.035294" d="M0.532 0.886c0,-0.052 -0.071,-0.093 -0.159,-0.093 -0.089,0 -0.16,0.041 -0.16,0.093 0,0.051 0.071,0.093 0.16,0.093 0.088,0 0.159,-0.042 0.159,-0.093z"/>
   <path id="Oval-3" fill="black" fill-opacity="0.035294" d="M0.479 0.886c0,-0.03 -0.048,-0.054 -0.106,-0.054 -0.059,0 -0.107,0.024 -0.107,0.054 0,0.029 0.048,0.053 0.107,0.053 0.058,0 0.106,-0.024 0.106,-0.053z"/>
  </g>
  <path fill="#FDFDFD" d="M0.54 0.706c-0.058,0.039 -0.101,0.101 -0.124,0.167 -0.005,0.019 -0.023,0.032 -0.043,0.032 -0.021,0 -0.038,-0.013 -0.044,-0.032 -0.023,-0.066 -0.066,-0.128 -0.123,-0.167 -0.126,-0.064 -0.206,-0.192 -0.206,-0.333 0,-0.206 0.167,-0.373 0.373,-0.373 0.205,0 0.372,0.167 0.372,0.373 0,0.141 -0.079,0.269 -0.205,0.333z"/>
  <path fill="#FBAC32" d="M0.373 0.027c0.191,0 0.346,0.155 0.346,0.346 0,0.136 -0.079,0.253 -0.193,0.31 -0.062,0.042 -0.11,0.109 -0.135,0.181l0 0 0 0c-0.002,0.008 -0.01,0.014 -0.018,0.014 -0.009,0 -0.017,-0.006 -0.019,-0.014l0 0 0 0c-0.025,-0.072 -0.073,-0.139 -0.135,-0.181 -0.114,-0.057 -0.192,-0.174 -0.192,-0.31 0,-0.191 0.155,-0.346 0.346,-0.346z"/>
 </g>
</svg>
