<?xml version="1.0" encoding="UTF-8"?>
<!DOCTYPE svg PUBLIC "-//W3C//DTD SVG 1.1//EN" "http://www.w3.org/Graphics/SVG/1.1/DTD/svg11.dtd">
<!-- Creator: CorelDRAW 2017 -->
<svg xmlns="http://www.w3.org/2000/svg" xml:space="preserve" width="28px" height="37px" version="1.1" shape-rendering="geometricPrecision" text-rendering="geometricPrecision" image-rendering="optimizeQuality" fill-rule="evenodd" clip-rule="evenodd"
viewBox="0 0 0.899 1.181"
 xmlns:xlink="http://www.w3.org/1999/xlink">
 <g id="Layer_x0020_1">
  <metadata id="CorelCorpID_0Corel-Layer"/>
  <g id="_1360561259104">
   <path id="Oval-3-Copy" fill="black" fill-opacity="0.035294" d="M0.642 1.069c0,-0.063 -0.086,-0.113 -0.192,-0.113 -0.107,0 -0.193,0.05 -0.193,0.113 0,0.062 0.086,0.112 0.193,0.112 0.106,0 0.192,-0.05 0.192,-0.112z"/>
   <path id="Oval-3" fill="black" fill-opacity="0.035294" d="M0.578 1.069c0,-0.036 -0.058,-0.065 -0.128,-0.065 -0.071,0 -0.129,0.029 -0.129,0.065 0,0.035 0.058,0.064 0.129,0.064 0.07,0 0.128,-0.029 0.128,-0.064z"/>
  </g>
  <path fill="#FDFDFD" d="M0.651 0.851c-0.069,0.048 -0.122,0.123 -0.149,0.202 -0.007,0.023 -0.028,0.039 -0.052,0.039 -0.025,0 -0.046,-0.016 -0.053,-0.039 -0.027,-0.079 -0.08,-0.155 -0.149,-0.202 -0.152,-0.076 -0.248,-0.231 -0.248,-0.401 0,-0.249 0.201,-0.45 0.45,-0.45 0.248,0 0.449,0.201 0.449,0.45 0,0.17 -0.096,0.325 -0.248,0.401z"/>
  <path fill="#F0523E" d="M0.45 0.032c0.23,0 0.417,0.187 0.417,0.418 0,0.164 -0.095,0.305 -0.232,0.374 -0.075,0.05 -0.133,0.132 -0.163,0.219l0 0 0 0c-0.003,0.01 -0.012,0.017 -0.022,0.017 -0.011,0 -0.02,-0.007 -0.023,-0.017l0 0 0 0c-0.03,-0.087 -0.088,-0.169 -0.163,-0.219 -0.137,-0.069 -0.232,-0.21 -0.232,-0.374 0,-0.231 0.187,-0.418 0.418,-0.418z"/>
  <path fill="black" fill-opacity="0.301961" d="M0.45 0.305c0.079,0 0.144,0.065 0.144,0.145 0,0.079 -0.065,0.144 -0.144,0.144 -0.08,0 -0.145,-0.065 -0.145,-0.144 0,-0.08 0.065,-0.145 0.145,-0.145z"/>
 </g>
</svg>
