<?xml version="1.0" encoding="UTF-8"?>
<!DOCTYPE svg PUBLIC "-//W3C//DTD SVG 1.1//EN" "http://www.w3.org/Graphics/SVG/1.1/DTD/svg11.dtd">
<!-- Creator: CorelDRAW 2017 -->
<svg xmlns="http://www.w3.org/2000/svg" xml:space="preserve" width="42px" height="54px" version="1.1" shape-rendering="geometricPrecision" text-rendering="geometricPrecision" image-rendering="optimizeQuality" fill-rule="evenodd" clip-rule="evenodd"
viewBox="0 0 4.667 6"
 xmlns:xlink="http://www.w3.org/1999/xlink">
 <g id="Layer_x0020_1">
  <metadata id="CorelCorpID_0Corel-Layer"/>
  <g id="_2381536971904">
   <path id="Oval-3-Copy" fill="black" fill-opacity="0.035294" d="M3.111 5.546c0,-0.25 -0.348,-0.453 -0.778,-0.453 -0.429,0 -0.777,0.203 -0.777,0.453 0,0.251 0.348,0.454 0.777,0.454 0.43,0 0.778,-0.203 0.778,-0.454z"/>
   <path id="Oval-3" fill="black" fill-opacity="0.035294" d="M2.852 5.546c0,-0.143 -0.232,-0.259 -0.519,-0.259 -0.286,0 -0.518,0.116 -0.518,0.259 0,0.143 0.232,0.26 0.518,0.26 0.287,0 0.519,-0.117 0.519,-0.26z"/>
  </g>
  <path fill="#FDFDFD" d="M2.555 5.496c-0.032,0.094 -0.121,0.158 -0.222,0.158 -0.101,0 -0.19,-0.064 -0.222,-0.159 0,-0.002 -0.001,-0.003 -0.002,-0.005 -0.144,-0.422 -0.48,-0.887 -0.878,-1.1 -0.758,-0.406 -1.231,-1.195 -1.231,-2.057 0,-1.288 1.045,-2.333 2.333,-2.333 1.289,0 2.334,1.045 2.334,2.333 0,0.862 -0.474,1.651 -1.231,2.057 -0.398,0.213 -0.734,0.678 -0.879,1.1 0,0.002 -0.001,0.004 -0.002,0.006z"/>
  <path fill="#F0523E" d="M2.333 0.111c1.228,0 2.223,0.995 2.223,2.222 0,0.848 -0.475,1.584 -1.173,1.959 -0.424,0.227 -0.778,0.714 -0.931,1.162l0 0 0 0c-0.015,0.051 -0.062,0.089 -0.119,0.089 -0.056,0 -0.104,-0.038 -0.118,-0.089l-0.001 0 0 0c-0.153,-0.448 -0.506,-0.935 -0.931,-1.162 -0.697,-0.375 -1.172,-1.111 -1.172,-1.959 0,-1.227 0.995,-2.222 2.222,-2.222z"/>
 </g>
</svg>
