<?xml version="1.0" encoding="UTF-8"?>
<!DOCTYPE svg PUBLIC "-//W3C//DTD SVG 1.1//EN" "http://www.w3.org/Graphics/SVG/1.1/DTD/svg11.dtd">
<!-- Creator: CorelDRAW 2017 -->
<svg xmlns="http://www.w3.org/2000/svg" xml:space="preserve" width="80px" height="80px" version="1.1" shape-rendering="geometricPrecision" text-rendering="geometricPrecision" image-rendering="optimizeQuality" fill-rule="evenodd" clip-rule="evenodd"
viewBox="0 0 79.99 79.99"
 xmlns:xlink="http://www.w3.org/1999/xlink">
 <g id="Layer_x0020_1">
  <metadata id="CorelCorpID_0Corel-Layer"/>
  <g id="_1638955348016">
   <rect fill="#F6F5F3" x="0.01" width="79.99" height="79.99"/>
   <path fill="#E6E6E6" d="M28.01 42.99l-4.99 3 0 5 -3.01 0 0 -13 -6 0 0 12 -4 0 0 -16 -10.01 0 0 25c9.33,0 18.68,0 28.01,0l0 -16z"/>
   <circle fill="#999999" cx="18.53" cy="50.51" r="5.5"/>
   <polygon fill="#888888" points="17.99,54.01 18.99,54.01 18.99,59.01 17.99,59.01 "/>
   <circle fill="#B3B3B3" cx="15.02" cy="54.01" r="2"/>
   <path fill="#E6E6E6" d="M51.98 42.99l4 3 0 3 4 0 0 -11 6 0 0 8 4 0 0 -12 10.01 0 0 25c-9.33,0 -18.68,0 -28.01,0l0 -16z"/>
   <polygon fill="#BFBFBF" points="28.01,59 52.01,59 52.01,23.01 28.01,23.01 "/>
   <path fill="#E6E6E6" d="M42.02 50.99l3 0 0 2.99 -3 0 0 -2.99zm0 -4l3 0 0 2.99 -3 0 0 -2.99zm4.01 0l2.99 0 0 2.99 -2.99 0 0 -2.99zm0 4l2.99 0 0 2.99 -2.99 0 0 -2.99z"/>
   <polygon fill="#888888" points="26.02,42 54.02,42 54.02,40 26.02,40 "/>
   <path fill="#E6E6E6" d="M31.02 31.98l5 0 0 5 -5 0 0 -5zm6 -6l6 0 0 5 -6 0 0 -5zm0 6l6 0 0 5 -6 0 0 -5zm7 -6l5 0 0 5 -5 0 0 -5zm0 6l5 0 0 5 -5 0 0 -5zm-13 -6l5 0 0 5 -5 0 0 -5z"/>
   <polygon fill="#888888" points="26.02,22.99 54.02,22.99 54.02,20.99 26.02,20.99 "/>
   <polygon fill="#888888" points="31.02,46.99 38.02,46.99 38.02,58.99 31.02,58.99 "/>
   <circle fill="#999999" cx="61.49" cy="40.51" r="10.5"/>
   <circle fill="#B3B3B3" cx="55.01" cy="49" r="5"/>
   <polygon fill="#888888" points="61,48.01 62,48.01 62,59.01 61,59.01 "/>
   <polygon fill="#888888" points="56.33,51.03 57.04,50.32 61.98,55.27 61.28,55.98 "/>
   <rect fill="#F6F5F3" x="0.01" y="58.99" width="79.99" height="21"/>
   <polygon fill="#D9D9D9" points="31,58.99 38.01,58.99 40.01,62.99 79.99,65.98 79.99,79.99 0.01,79.99 0.01,65.98 31,62.99 "/>
  </g>
 </g>
</svg>
