<?xml version="1.0" encoding="utf-8"?>
<!-- Generator: Adobe Illustrator 23.0.0, SVG Export Plug-In . SVG Version: 6.00 Build 0)  -->
<svg version="1.1" id="Capa_1" xmlns="http://www.w3.org/2000/svg" xmlns:xlink="http://www.w3.org/1999/xlink" x="0px" y="0px"
	 viewBox="0 0 24 24" style="enable-background:new 0 0 24 24;" xml:space="preserve">
<path d="M12,23c-2.7,0-5.5-1-7.6-3.1c-3.2-3.2-4.3-7.9-2.6-12C3.6,3.8,7.6,1,12,1c4.5,0,8.6,2.8,10.2,6.9c1.6,4.2,0.6,8.9-2.7,12
	l0,0C17.5,22,14.7,23,12,23z M5.9,18.9c3.5,3.1,8.7,3.1,12,0.1c-0.1-0.4-0.3-0.6-0.5-0.8c-0.6-0.6-1.2-0.9-1.9-1
	c-0.2,0.7-0.9,2.1-3.1,3.9l-0.1,0.1h-0.1c-0.1,0.1-0.2,0.1-0.3,0.1h-0.1l-0.1-0.1c-0.1,0-0.2-0.1-0.3-0.1l0,0L11.4,21
	c-2.2-1.8-2.9-3.1-3.1-3.9c-0.6,0.1-1.4,0.5-2,1C6.1,18.3,6,18.6,5.9,18.9z M10.7,17.9c0.4,0.5,0.7,0.9,1.3,1.4
	c0.5-0.4,0.9-0.8,1.3-1.3C12.6,18.2,11.6,18.2,10.7,17.9z M12,2.8c-3.6,0-6.8,2-8.4,5.4c-1.5,3.2-1.1,6.9,1,9.6
	c0.2-0.3,0.3-0.6,0.6-0.7c1-0.9,2.1-1.4,3.3-1.6c0.3-0.4,0.6-0.7,0.6-1.2L9,14.1c-0.6-0.5-1-1.2-1-2c-0.6-0.3-0.9-0.7-1.1-1.4
	c-0.2-1.2,0-1.8,0.6-2.1h0.1V8.3c0.2-2.4,2.7-3.1,4-3.1h0.5c1.4,0,3.7,0.8,3.9,3v0.4l0,0c0.8,0.2,0.9,1.2,0.7,2
	c-0.2,0.6-0.6,1.1-1.1,1.4c0,0.8-0.4,1.6-1,2.1l0,0c0.2,0.5,0.5,0.8,0.6,1.2c1.2,0.1,2.4,0.6,3.3,1.6c0.2,0.2,0.4,0.5,0.6,0.7
	c2.1-2.8,2.5-6.6,1-9.6C18.8,4.8,15.6,2.8,12,2.8z M10.2,15.9c0.6,0.4,1.2,0.6,1.8,0.6c0.6-0.1,1.2-0.3,1.8-0.6
	c-0.1-0.1-0.2-0.3-0.3-0.4c-0.3,0.2-0.6,0.4-1.1,0.4h-0.9c-0.4,0-0.8-0.1-1.1-0.4C10.3,15.6,10.3,15.7,10.2,15.9z M12.2,6.9h-0.5
	c0,0-2.1,0.1-2.2,1.5c-0.1,0.6,0,1.5,0.2,2.2c0.1,0.3,0.1,0.6,0.1,0.9V12c-0.2,0.6,0.2,0.9,0.4,1c0.3,0.3,0.6,0.6,0.9,1
	c0.1,0.1,0.1,0.2,0.2,0.2c0.2,0.2,0.2,0.2,0.3,0.2h0.9c0.2,0,0.2,0,0.5-0.4c0.1-0.3,0.4-0.6,0.6-0.7c0.1-0.1,0.2-0.1,0.2-0.2
	c0.3-0.3,0.5-0.7,0.4-1.1v-0.4c0-0.3,0-0.6,0.1-0.9c0.2-0.8,0.2-1.7,0.1-2.2C14.3,7,12.2,6.9,12.2,6.9z"/>
</svg>
