<?xml version="1.0" encoding="utf-8"?>
<!-- Generator: Adobe Illustrator 23.0.0, SVG Export Plug-In . SVG Version: 6.00 Build 0)  -->
<svg version="1.1" id="Layer_1" xmlns="http://www.w3.org/2000/svg" xmlns:xlink="http://www.w3.org/1999/xlink" x="0px" y="0px"
	 viewBox="0 0 24 24" style="enable-background:new 0 0 24 24;" xml:space="preserve">
<path d="M7.1,13.3c0.1-0.3,0.2-0.5,0.4-0.7c0.4-0.4,0.9-0.6,1.5-0.6c0.2,0.5,0.6,1.4,1.9,2.5c0,0,0.1,0,0.1,0.1c0,0,0.1,0,0.2,0
	c0.1,0,0.1,0,0.2,0l0,0c0,0,0,0,0.1,0c1.4-1.1,1.8-1.9,1.9-2.5c0.6,0.1,1,0.3,1.5,0.6c0.2,0.2,0.3,0.5,0.4,0.7
	C12.8,15.3,9.4,15.3,7.1,13.3L7.1,13.3z M11,13.6c-0.5-0.4-0.8-0.8-1.2-1.3c0.4,0.2,0.7,0.3,1.2,0.3c0.4,0,0.8-0.1,1.2-0.3
	C11.9,12.7,11.5,13.2,11,13.6z M10,10.8c0.2,0.2,0.5,0.3,0.7,0.3h0.6c0.3,0,0.6-0.1,0.7-0.3c0.1,0.2,0.2,0.4,0.3,0.6
	c-0.4,0.3-0.8,0.5-1.4,0.5c-0.5-0.1-0.9-0.2-1.3-0.5C9.8,11.2,9.9,11,10,10.8L10,10.8z M12.6,7.9c0,0.2-0.1,0.4-0.1,0.5v0.1l0,0v0.1
	c0.1,0.3-0.1,0.6-0.3,0.7c-0.2,0.2-0.4,0.4-0.6,0.6c-0.2,0.3-0.2,0.3-0.4,0.3h-0.6c-0.2,0-0.2,0-0.4-0.3c-0.2,0-0.4-0.2-0.6-0.4
	C9.6,9.3,9.5,9,9.6,8.8V8.7l0,0V8.6c0-0.2,0-0.4-0.1-0.5C9.4,7.5,9.4,7,9.4,6.5c0.1-0.9,1.5-1,1.5-1h0.4c0,0,1.5,0.1,1.5,1
	C12.8,7,12.7,7.5,12.6,7.9L12.6,7.9z M17,3.5C14,0.4,9.1,0.2,5.7,2.8S1.4,10.3,3.7,14c0.6,0.8,1.1,1.6,1.8,2.3
	c0.3,0.3,0.5,0.6,0.7,0.8l0.4,0.5c0.7,0.9,1.6,1.8,2.3,2.8l0.6,0.8l0,0l1.1,1.3c0.1,0.1,0.2,0.2,0.4,0.2c0.2,0,0.3-0.1,0.4-0.2
	l1.7-2c0.7-0.9,1.6-1.8,2.3-2.8l0.4-0.5c0.3-0.3,0.5-0.6,0.7-0.8c0.6-0.7,1.3-1.5,1.8-2.3C20.4,10.7,19.9,6.4,17,3.5z M16.5,13.3
	c-0.4,0.6-0.8,1.2-1.4,1.8c-0.2,0.2-0.4,0.5-0.6,0.6l-0.3,0.4c-0.6,0.7-1.2,1.4-1.8,2.1l-1.3,1.6c-0.1,0.1-0.2,0.1-0.3,0.1
	s-0.2,0-0.3-0.1l-0.8-1l0,0l-0.5-0.6c-0.6-0.7-1.2-1.4-1.8-2.1l-0.2-0.4c-0.2-0.2-0.4-0.5-0.6-0.6c-0.5-0.6-0.9-1.1-1.4-1.8
	C3.7,10.5,4.4,6.8,7,4.8s6.3-1.8,8.6,0.5C17.8,7.4,18.2,10.7,16.5,13.3z M18.2,16.3c1.8,0,3.3,1.5,3.3,3.3S20.1,23,18.2,23
	s-3.3-1.5-3.3-3.3S16.4,16.3,18.2,16.3z"/>
</svg>
