<?xml version="1.0" encoding="utf-8"?>
<!-- Generator: Adobe Illustrator 23.0.0, SVG Export Plug-In . SVG Version: 6.00 Build 0)  -->
<svg version="1.1" id="Capa_1" xmlns="http://www.w3.org/2000/svg" xmlns:xlink="http://www.w3.org/1999/xlink" x="0px" y="0px"
	 viewBox="0 0 24 24" style="enable-background:new 0 0 24 24;" xml:space="preserve">
<path d="M10.1,17.8l-2.6,2.6c-1.1,1.1-2.8,1.1-3.8,0c-1.1-1.1-1.1-2.8,0-3.8l5.2-5.2c1.1-1.1,2.8-1.1,3.8,0c0.4,0.4,0.9,0.4,1.3,0
	c0.4-0.4,0.4-0.9,0-1.3c-1.8-1.8-4.7-1.8-6.5,0l-5.2,5.2c-1.8,1.8-1.8,4.7,0,6.5c1.8,1.8,4.7,1.8,6.5,0l2.6-2.6
	c0.4-0.4,0.4-0.9,0-1.3C11,17.4,10.4,17.4,10.1,17.8z M21.6,2.4c-1.8-1.8-4.7-1.8-6.5,0L12,5.5c-0.4,0.4-0.4,0.9,0,1.3
	c0.4,0.4,0.9,0.4,1.3,0l3.1-3.1c1.1-1.1,2.8-1.1,3.8,0c1.1,1.1,1.1,2.8,0,3.8l-5.7,5.7c-1.1,1.1-2.8,1.1-3.8,0
	c-0.4-0.4-0.9-0.4-1.3,0c-0.4,0.4-0.4,0.9,0,1.3c1.8,1.8,4.7,1.8,6.5,0l5.7-5.7C23.4,7.1,23.4,4.2,21.6,2.4z"/>
</svg>
