<?xml version="1.0" encoding="utf-8"?>
<!-- Generator: Adobe Illustrator 23.0.0, SVG Export Plug-In . SVG Version: 6.00 Build 0)  -->
<svg version="1.1" id="Capa_1" xmlns="http://www.w3.org/2000/svg" xmlns:xlink="http://www.w3.org/1999/xlink" x="0px" y="0px"
	 viewBox="0 0 24 24" style="enable-background:new 0 0 24 24;" xml:space="preserve">
<path d="M22.2,23H1.8C1.3,23,1,22.6,1,22.1v-0.8h22v0.8C23,22.7,22.7,23,22.2,23z M9.8,23H2.6c-0.5,0-0.8-0.4-0.8-0.8V9.8
	C1.8,9.4,2.2,9,2.6,9h7.1c0.5,0,0.8,0.4,0.8,0.8v12.4C10.6,22.7,10.3,23,9.8,23z M3.5,21.3H9V10.6H3.5V21.3z M21.3,23h-7.1
	c-0.5,0-0.8-0.4-0.8-0.8V4.5c0-0.5,0.4-0.8,0.8-0.8h7.1c0.4,0,0.7,0.3,0.8,0.7v0.1v17.7C22.1,22.7,21.8,23,21.3,23z M15,21.3h5.5
	V5.2H15V21.3z M7.1,8.9H5.5V1.8C5.5,1.3,5.9,1,6.3,1h11.9c0.4,0,0.8,0.3,0.8,0.7v0.1v1.7h-1.6V2.5H7.1C7.1,2.5,7.1,8.9,7.1,8.9z
	 M4.1,11.1H5V19H4.1V11.1z M5.8,11.1h0.9V19H5.8V11.1z M7.6,11.1h0.9V19H7.6V11.1z M14.2,6.2h4.9v0.9h-4.9V6.2z M14.2,8.5h4.9v0.9
	h-4.9V8.5z M14.2,10.7h4.9v0.9h-4.9V10.7z M14.2,12.9h4.9v0.9h-4.9V12.9z M14.2,15.1h4.9v0.9h-4.9V15.1z M14.2,17.3h4.9v0.9h-4.9
	V17.3z M8,3.6H9v1.3H8V3.6z M9.3,5.2H7.7v-2h1.6V5.2z M9.3,7.9H7.7V6h1.6V7.9z M11.1,7.9H9.4V6h1.6V7.9z M11.1,5.2H9.4v-2h1.6V5.2z
	 M12.8,5.2h-1.6v-2h1.6V5.2z M12.8,7.9h-1.6V6h1.6V7.9z M12.8,10.5h-1.6v-2h1.6V10.5z M12.8,13.2h-1.6v-2h1.6V13.2z M12.8,15.9h-1.6
	v-2h1.6V15.9z M12.8,18.5h-1.6v-2h1.6V18.5z M18.2,19.5h-2.2c-0.3,0-0.5,0.2-0.5,0.5v2.2h0.9v-1.8h1.3v1.8h0.9v-2.2
	C18.6,19.7,18.4,19.5,18.2,19.5z M8,19.9H4.5c-0.3,0-0.5,0.2-0.5,0.5v1.8H5v-1.3h2.6v1.3h0.9v-1.8C8.5,20.1,8.3,19.9,8,19.9z"/>
</svg>
