<?xml version="1.0" encoding="utf-8"?>
<!-- Generator: Adobe Illustrator 23.0.0, SVG Export Plug-In . SVG Version: 6.00 Build 0)  -->
<svg version="1.1" id="Capa_1" xmlns="http://www.w3.org/2000/svg" xmlns:xlink="http://www.w3.org/1999/xlink" x="0px" y="0px"
	 viewBox="0 0 24 24" style="enable-background:new 0 0 24 24;" xml:space="preserve">
<path d="M12.2,9.2c-1.2,0-2.2,1-2.2,2.2s1,2.2,2.2,2.2s2.2-1,2.2-2.2S13.4,9.2,12.2,9.2z M12.2,12.6c-0.6,0-1.1-0.6-1.1-1.1
	c0-0.6,0.6-1.1,1.1-1.1l0,0c0.6,0,1.1,0.6,1.1,1.1C13.3,12.1,12.7,12.6,12.2,12.6z M17.5,21.7H3.3c-1.3,0-2.3-1-2.3-2.4V8.7
	c0-1.3,1.1-2.5,2.4-2.5h0.5l0.3-1.8C4.2,3.8,4.5,3.2,5,2.8c0.6-0.5,1.2-0.6,1.8-0.5l14.1,1.6c0.6,0.1,1.2,0.4,1.6,0.9
	C22.8,5.3,23,5.9,23,6.6L21.8,17c-0.1,0.5-0.3,1.1-0.8,1.6c-0.4,0.3-0.6,0.4-0.8,0.5v0.2C20,20.6,18.8,21.7,17.5,21.7z M2.8,17.7
	v1.8c0,0.4,0.2,0.6,0.6,0.6h14.3c0.4,0,0.7-0.4,0.7-0.6l0,0l0.1-4.4l-4.5,2.6C13.5,17.8,13,18,12.5,18c-0.6,0-1.3-0.2-1.8-0.6
	l-2.9-2.5c-0.3-0.4-0.8-0.4-1.1-0.1L2.8,17.7z M5.5,6.2h12c1.4,0,2.6,1.1,2.6,2.5v8.6c0-0.1,0-0.2,0-0.3l1.2-10.5
	c0-0.5-0.3-0.7-0.6-0.8L6.5,4C6.4,4,6.2,4.1,6,4.2C5.8,4.3,5.8,4.3,5.8,4.5L5.5,6.2z M7.2,12.9c0.6,0,1.2,0.2,1.8,0.6l2.9,2.5
	c0.3,0.3,0.8,0.3,1.2,0.1l5.5-3.2l-0.1-4.1c0-0.4-0.3-0.7-0.7-0.7H3.3c-0.4,0-0.6,0.4-0.6,0.7v6.7l2.9-2.1
	C6.1,13.1,6.6,12.9,7.2,12.9z"/>
</svg>
