<?xml version="1.0" encoding="utf-8"?>
<!-- Generator: Adobe Illustrator 23.0.0, SVG Export Plug-In . SVG Version: 6.00 Build 0)  -->
<svg version="1.1" id="Layer_1" xmlns="http://www.w3.org/2000/svg" xmlns:xlink="http://www.w3.org/1999/xlink" x="0px" y="0px"
	 viewBox="0 0 24 24" style="enable-background:new 0 0 24 24;" xml:space="preserve">
<path d="M4.9,16.7c0.8,0,1.6,0.7,1.6,1.5s-0.7,1.5-1.6,1.5s-1.6-0.7-1.6-1.5S4.1,16.7,4.9,16.7z M18.5,4c0.8,0,1.6,0.7,1.6,1.5
	S19.4,7,18.5,7s-1.6-0.7-1.6-1.5S17.7,4,18.5,4z M12.7,23c-0.2,0-0.4-0.1-0.7-0.2l0,0l-1.5-1.5c-0.3-0.5-0.3-1,0-1.4l1.5-1.5
	c0.5-0.3,1-0.3,1.4,0c0.3,0.4,0.3,0.7,0.1,1.1c3.5-0.7,6.2-3.9,6.2-7.6c0-0.5,0.4-0.9,0.8-0.9c0.3,0,0.6,0.1,0.7,0.3
	c0.1,0.1,0.1,0.4,0.1,0.6c0,4.7-3.4,8.8-8.1,9.5l0,0c0.3,0.5,0.3,1,0,1.4C13.3,22.9,12.9,23,12.7,23z M3.3,12.9
	c-0.3,0-0.6-0.1-0.7-0.3c-0.1-0.1-0.1-0.4-0.1-0.6c0.1-4.7,3.5-8.8,8-9.5l0,0c-0.3-0.5-0.3-1,0-1.4c0.5-0.3,0.8-0.3,1.3,0l1.5,1.5
	c0.3,0.5,0.3,1,0,1.4l-1.4,1.5c-0.2,0.2-0.6,0.3-0.7,0.3c-0.3,0-0.5-0.1-0.6-0.4c-0.2-0.2-0.3-0.5-0.3-0.7c0-0.1,0-0.3,0.1-0.4
	C6.9,5.1,4.3,8.3,4.3,12l0,0C4.2,12.4,4,12.9,3.3,12.9z M12,12.7c-0.1,0-0.2,0-0.3-0.1l-1.6-0.7c-0.1,0-0.2-0.1-0.3-0.3
	c-0.1-0.2-0.1-0.4,0-0.7c0.1-0.2,0.2-0.4,0.4-0.4c0.2-0.1,0.4,0,0.5,0.1l1.1,0.6l1.1-1.2c0.4-0.2,0.7-0.2,1,0c0.2,0.4,0.2,0.7,0,1
	l-1.5,1.5C12.3,12.7,12.2,12.7,12,12.7z M12,6.9c-2.8,0-5.1,2.3-5.1,5.1s2.3,5.1,5.1,5.1c2.7,0,5.1-2.4,5.1-5.1
	C17.1,9.2,14.8,6.9,12,6.9z M12.4,15.9v-0.6c0-0.3-0.2-0.6-0.6-0.6c-0.3,0-0.6,0.2-0.7,0.5v0.4c-1.6-0.1-2.8-1.3-3.1-3.1h0.6
	c0.3,0,0.6-0.2,0.6-0.6c0-0.4-0.2-0.6-0.6-0.6H8.1c0.3-1.8,1.7-3.2,3.4-3.4v0.6c0,0.3,0.2,0.6,0.6,0.6c0.3,0,0.6-0.2,0.6-0.4V8.3
	c1.7,0.3,3.1,1.6,3.3,3.3h-0.6c-0.3,0-0.6,0.3-0.6,0.6s0.2,0.6,0.6,0.6h0.4C15.4,14.3,14,15.7,12.4,15.9z"/>
</svg>
